# Blender v2.78 (sub 0) OBJ File: 'terrain.blend'
# www.blender.org
mtllib 11_1.mtl
o 11_1_Cube.110
v -95.087173 71.669327 -109.004440
v -87.672340 78.030548 -81.306870
v -26.967674 60.447197 -70.214661
v -115.142258 7.362560 -36.223358
v -60.973251 82.882477 -125.752747
v -15.529236 65.092644 -113.297958
v -93.232567 -4.788750 -35.271706
v -111.953293 38.142403 -141.581268
v -71.642616 65.736130 -133.889709
v -45.796825 -26.811665 -66.648750
v -75.958382 69.356567 -47.506721
v -42.064472 49.497787 -141.984482
v -19.625401 -20.584984 -107.328522
v -21.663208 -17.306263 -127.578354
v -31.736954 8.281038 -61.939651
v -13.912209 21.025904 -130.078995
v -43.400700 86.526657 -117.521095
v -137.024826 6.991310 -140.397614
v -89.934418 17.852394 -37.140701
v -5.892323 -7.542122 -102.614014
v -103.872787 57.605659 -41.432053
v -133.048706 30.121964 -85.567116
v -26.670410 -1.098488 -147.007202
v -95.715073 -16.973423 -145.238144
v -77.801003 -0.338200 -164.062073
v -130.480804 -17.353287 -101.160591
v -34.576447 72.930054 -81.014908
v -86.341965 -29.180000 -106.138405
v -81.491005 47.040176 -33.620193
v -103.524353 51.966835 -122.330826
v -10.560326 37.552910 -86.813568
v -93.784592 47.397621 -154.443695
v -109.364380 36.317589 -46.813232
v -71.882141 9.435398 -165.286743
v -256.000000 0.000000 256.000000
v -128.000000 0.000000 256.000000
v 0.000000 0.000000 256.000000
v 128.000000 0.000000 256.000000
v 256.000000 0.000000 256.000000
v -256.000000 0.000000 128.000000
v -125.722511 2.277488 122.306282
v 1.138743 -5.693717 133.693710
v 117.751312 -0.000001 131.416229
v 256.000000 0.000000 128.000000
v -256.000000 0.000000 0.000000
v -128.000000 0.000000 0.000000
v 0.000000 2.277486 0.000000
v 133.693710 -5.693715 -1.138743
v 256.000000 0.000000 0.000000
v -256.000000 0.000000 -128.000000
v -130.277481 -5.693717 -122.306282
v 7.971203 0.000003 -137.109955
v 125.722511 -0.000001 -124.583771
v 256.000000 0.000000 -128.000000
v -256.000000 0.000000 -256.000000
v -128.000000 0.000000 -256.000000
v 0.000000 0.000000 -256.000000
v 128.000000 0.000000 -256.000000
v 256.000000 0.000000 -256.000000
vt 1.0000 4.0000
vt 0.0000 4.0000
vt 0.0000 3.0000
vt 1.0000 3.0000
vt 0.0000 1.0000
vt -1.0000 1.0000
vt -1.0000 0.0000
vt 0.0000 0.0000
vt 0.0000 2.0000
vt -1.0000 2.0000
vt -1.0000 3.0000
vt -1.0000 4.0000
vt -2.0000 1.0000
vt -2.0000 0.0000
vt -2.0000 2.0000
vt -2.0000 3.0000
vt -2.0000 4.0000
vt -3.0000 1.0000
vt -3.0000 0.0000
vt -3.0000 2.0000
vt -3.0000 3.0000
vt -3.0000 4.0000
vt 1.0000 2.0000
vt 1.0000 1.0000
vt 1.0000 0.0000
vt 0.2551 0.4589
vt -0.0406 0.5611
vt -0.0045 0.8672
vt 0.2398 0.4549
vt 0.0369 0.3658
vt 0.1192 0.1735
vt 0.4866 0.0486
vt 0.8071 -0.0915
vt 0.8408 0.1795
vt 0.4827 0.4549
vt 0.3350 0.7136
vt 0.5245 0.6573
vt 0.2629 0.1293
vt 0.4827 -0.0509
vt 0.2553 -0.0151
vt 0.3077 0.4789
vt 0.5544 0.5949
vt 0.7241 0.5001
vt 0.2553 0.4907
vt 0.2198 0.2932
vt 0.1730 0.4599
vt -0.2507 0.4589
vt -0.2099 0.7436
vt 0.3704 0.1302
vt -0.0424 0.1047
vt 0.0187 0.0392
vt -0.1700 -0.2026
vt 0.0174 -0.1937
vt 0.0747 0.1757
vt 0.0553 -0.1331
vt -0.3157 0.1448
vt 0.4491 0.0993
vt 0.4281 0.0250
vt -0.0045 -0.0501
vt 0.2959 0.2378
vt 0.2551 -0.0469
vt -0.0045 0.3614
vt 0.1731 0.2449
vt -0.1296 0.3303
vt -0.1354 0.0702
vt -0.2115 0.2449
vt -0.0459 0.1111
vt 0.6788 0.1735
vt 0.1730 0.1192
vt 0.1730 -0.0459
vt -0.0777 0.3455
vt 0.0908 0.2060
vt 0.0577 0.3387
vt 0.3183 0.5805
vt 0.1902 0.1448
vt 0.3052 0.3256
vt 0.4348 0.1835
vt 0.4693 0.3039
vt 0.3078 0.3077
vt 0.1591 0.2733
vt 0.0577 -0.1671
vt 0.2943 0.2449
vt 0.3260 0.1225
vt 0.4599 0.1111
vt 0.4634 0.1267
vt 0.4480 0.2733
vt 0.3157 0.1448
vt 0.6357 0.3260
vt 0.3350 0.1795
vt 0.3013 -0.0915
vt 0.5245 0.0392
vt 0.4866 0.5544
vt 0.3614 0.4558
vt 0.0747 0.6815
vt 0.3787 0.7118
vt 0.0174 0.0279
vt -0.1700 0.1499
vt -0.1296 -0.1755
vt 0.3704 0.0702
vt 0.3762 0.3303
vt -0.0424 0.1267
vt 0.1299 0.1225
vt 0.2629 0.2627
vt -0.0192 0.0486
vt 0.3013 0.4143
vt -0.0366 0.3039
vt 0.3358 0.3032
vt 0.7799 0.3387
vt 0.0392 0.1515
vt -0.1937 0.0279
vt 0.0369 -0.1400
vt -0.1937 0.5337
vt 0.3358 0.6557
vt -0.0710 0.4808
vt -0.0578 0.2733
vt 0.4348 0.4808
vt 0.3078 0.4789
vt 0.6788 0.4599
vt 0.4693 -0.2019
vt 0.2629 0.6352
vt 0.0319 0.2183
vt 0.4652 0.0553
vt 0.7609 -0.0469
vt 0.4634 -0.4011
vt 0.3157 0.1902
vt 0.4652 0.5611
vt 0.4634 0.1047
vt 0.3614 -0.0501
vt 0.5013 0.3614
vt 0.9339 0.3455
vt 0.8017 0.2378
vt 0.8820 0.3303
vt 0.1731 -0.2609
vt 0.3607 0.0993
vt 0.3455 0.0250
vt 0.0319 0.5001
vt 0.5805 0.1757
vt 0.3298 0.3256
vt 0.2741 0.3387
vt 0.3787 0.2060
vt 0.0392 0.6573
vt 0.4281 0.3455
vt 0.6788 -0.0459
vt -0.2045 -0.0915
vt 0.8416 0.6557
vt 0.4693 0.6154
vn -0.0000 1.0000 -0.0000
vn -0.0090 0.9999 -0.0090
vn 0.0213 0.9995 0.0219
vn 0.0092 0.9999 0.0091
vn -0.0220 0.9995 -0.0232
vn 0.0229 0.9995 -0.0229
vn -0.0317 0.9990 -0.0314
vn 0.0311 0.9994 0.0131
vn -0.0223 0.9995 0.0233
vn 0.0219 0.9995 0.0219
vn -0.0201 0.9995 0.0230
vn -0.0235 0.9995 -0.0222
vn -0.0086 0.9999 0.0086
vn 0.0318 0.9994 -0.0129
vn -0.2774 -0.8364 -0.4727
vn 0.5832 0.2540 -0.7716
vn 0.0885 0.9402 0.3288
vn 0.4884 0.4932 -0.7199
vn -0.0088 0.4332 -0.9013
vn -0.7395 0.6718 0.0437
vn 0.1530 0.6498 -0.7446
vn 0.0703 -0.9473 -0.3126
vn -0.2342 -0.9261 0.2960
vn 0.8647 0.4204 0.2749
vn -0.9497 -0.1429 0.2787
vn -0.3584 0.1007 -0.9281
vn -0.5091 -0.8487 -0.1429
vn 0.7143 -0.3662 0.5963
vn 0.8589 -0.2622 -0.4400
vn 0.4084 0.2124 -0.8877
vn 0.2086 -0.7239 -0.6576
vn -0.3537 0.2504 -0.9012
vn -0.4608 0.8484 -0.2605
vn -0.8278 0.3309 0.4530
vn -0.0418 0.5353 0.8436
vn -0.5080 -0.0856 0.8571
vn -0.4890 0.6033 -0.6301
vn 0.2027 0.3753 -0.9045
vn 0.7093 -0.6811 -0.1817
vn 0.0022 0.0820 0.9966
vn 0.1262 -0.9895 -0.0703
vn 0.5876 0.7944 0.1538
vn -0.3030 0.8925 0.3341
vn -0.7668 0.6095 -0.2015
vn -0.5489 -0.0790 -0.8322
vn 0.7374 0.0396 0.6743
vn 0.4318 -0.2877 0.8548
vn 0.6094 -0.7423 0.2785
vn -0.1977 0.9802 -0.0118
vn 0.3932 0.7269 0.5631
vn -0.9215 0.3884 0.0092
vn -0.9615 0.2657 -0.0697
vn 0.9914 0.0768 -0.1061
vn 0.9801 0.1478 -0.1324
vn 0.5412 0.0833 0.8368
vn 0.3534 -0.2121 0.9111
vn -0.3363 -0.0163 0.9416
vn 0.1229 -0.9776 -0.1707
vn 0.0921 0.9717 0.2174
vn 0.2633 0.5384 -0.8005
vn -0.3610 0.9253 -0.1159
vn -0.2154 -0.9296 0.2990
vn -0.4562 -0.7905 0.4086
vn -0.9899 -0.0895 0.1096
vn -0.3753 -0.4877 -0.7882
vn 0.3945 0.0184 0.9187
vn 0.8182 -0.1128 0.5638
vn 0.8821 -0.1735 -0.4380
vn 0.2984 -0.2945 -0.9079
vn -0.5002 0.6218 -0.6026
vn -0.5879 0.7567 -0.2860
vn -0.4655 0.8731 0.1449
vn -0.1168 0.3616 0.9250
vn -0.7157 0.6768 -0.1726
vn 0.6131 0.3007 -0.7306
vn 0.1349 -0.8027 -0.5809
vn 0.7089 0.6561 0.2589
vn 0.4446 0.3912 0.8058
usemtl textures/dev/ground
s off
f 39/1/1 44/2/1 43/3/1 38/4/1
f 41/5/2 46/6/2 45/7/2 40/8/2
f 42/9/3 47/10/3 46/6/3 41/5/3
f 43/3/4 48/11/4 47/10/4 42/9/4
f 44/2/5 49/12/5 48/11/5 43/3/5
f 46/6/6 51/13/6 50/14/6 45/7/6
f 47/10/7 52/15/7 51/13/7 46/6/7
f 48/11/8 53/16/8 52/15/8 47/10/8
f 49/12/9 54/17/9 53/16/9 48/11/9
f 51/13/10 56/18/10 55/19/10 50/14/10
f 52/15/11 57/20/11 56/18/11 51/13/11
f 53/16/1 58/21/1 57/20/1 52/15/1
f 54/17/1 59/22/1 58/21/1 53/16/1
f 38/4/12 43/3/12 42/9/12 37/23/12
f 36/24/13 41/5/13 40/8/13 35/25/13
f 37/23/14 42/9/14 41/5/14 36/24/14
usemtl textures/dev/ground_rock.tga
f 28/26/15 26/27/15 18/28/15
f 12/29/16 16/30/16 23/31/16
f 2/32/17 27/33/17 17/34/17
f 12/35/18 17/36/18 6/37/18
f 5/38/19 12/39/19 9/40/19
f 21/41/20 2/42/20 1/43/20
f 9/44/21 12/35/21 32/45/21
f 14/46/22 28/47/22 24/48/22
f 28/26/23 10/49/23 7/50/23
f 6/51/24 3/52/24 31/53/24
f 22/54/25 26/55/25 4/56/25
f 34/57/26 25/58/26 18/59/26
f 24/60/27 28/61/27 18/62/27
f 20/63/28 15/64/28 10/65/28
f 23/31/29 20/66/29 14/67/29
f 34/57/30 12/35/30 23/68/30
f 23/69/31 14/70/31 25/71/31
f 8/72/32 34/57/32 18/59/32
f 30/73/33 9/44/33 32/45/33
f 22/74/34 4/75/34 33/76/34
f 29/77/35 11/78/35 21/79/35
f 21/41/36 33/76/36 19/80/36
f 5/38/37 9/40/37 30/81/37
f 12/35/38 34/57/38 32/45/38
f 20/82/39 13/83/39 14/84/39
f 7/85/40 19/86/40 4/87/40
f 28/26/41 13/88/41 10/49/41
f 17/89/42 27/90/42 6/91/42
f 21/79/43 11/78/43 2/92/43
f 18/93/44 22/94/44 8/95/44
f 8/72/45 32/45/45 34/57/45
f 31/96/46 3/97/46 15/98/46
f 10/99/47 15/100/47 7/101/47
f 13/102/48 20/63/48 10/65/48
f 5/103/49 2/104/49 17/89/49
f 27/105/50 11/106/50 3/107/50
f 33/76/51 1/43/51 30/108/51
f 33/76/52 21/41/52 1/43/52
f 6/109/53 31/110/53 16/111/53
f 16/30/54 31/112/54 20/66/54
f 15/100/55 3/113/55 29/114/55
f 15/100/56 29/114/56 19/115/56
f 29/116/57 21/117/57 19/86/57
f 28/26/58 14/118/58 13/88/58
f 2/32/59 11/119/59 27/33/59
f 12/35/60 5/120/60 17/36/60
f 1/121/61 2/104/61 5/103/61
f 26/122/62 28/123/62 7/124/62
f 4/125/63 26/126/63 7/127/63
f 22/54/64 18/128/64 26/55/64
f 18/129/65 25/130/65 24/131/65
f 7/85/66 15/132/66 19/86/66
f 31/96/67 15/98/67 20/133/67
f 23/31/68 16/30/68 20/66/68
f 34/134/69 23/31/69 25/135/69
f 1/136/70 5/120/70 30/73/70
f 8/72/71 30/73/71 32/45/71
f 33/76/72 30/108/72 22/137/72
f 4/87/73 19/86/73 33/138/73
f 22/54/74 30/139/74 8/140/74
f 12/29/75 6/141/75 16/30/75
f 25/142/76 14/143/76 24/60/76
f 6/51/77 27/144/77 3/52/77
f 29/116/78 3/145/78 11/146/78
