# Blender v2.78 (sub 0) OBJ File: 'terrain.blend'
# www.blender.org
mtllib 11_1.mtl
o 11_1_Cube.110
v -95.087173 71.669327 -109.004440
v -87.672340 78.030548 -81.306870
v -26.967674 60.447197 -70.214661
v -115.142258 7.362560 -36.223358
v -60.973251 82.882477 -125.752747
v -15.529236 65.092644 -113.297958
v -93.232567 -4.788750 -35.271706
v -111.953293 38.142403 -141.581268
v -71.642616 65.736130 -133.889709
v -45.796825 -26.811665 -66.648750
v -75.958382 69.356567 -47.506721
v -42.064472 49.497787 -141.984482
v -19.625401 -20.584984 -107.328522
v -21.663208 -17.306263 -127.578354
v -31.736954 8.281038 -61.939651
v -13.912209 21.025904 -130.078995
v -43.400700 86.526657 -117.521095
v -137.024826 6.991310 -140.397614
v -89.934418 17.852394 -37.140701
v -5.892323 -7.542122 -102.614014
v -103.872787 57.605659 -41.432053
v -133.048706 30.121964 -85.567116
v -26.670410 -1.098488 -147.007202
v -95.715073 -16.973423 -145.238144
v -77.801003 -0.338200 -164.062073
v -130.480804 -17.353287 -101.160591
v -34.576447 72.930054 -81.014908
v -86.341965 -29.180000 -106.138405
v -81.491005 47.040176 -33.620193
v -103.524353 51.966835 -122.330826
v -10.560326 37.552910 -86.813568
v -93.784592 47.397621 -154.443695
v -109.364380 36.317589 -46.813232
v -71.882141 9.435398 -165.286743
v -256.000000 0.000000 256.000000
v -128.000000 0.000000 256.000000
v 0.000000 0.000000 256.000000
v 128.000000 0.000000 256.000000
v 256.000000 0.000000 256.000000
v -256.000000 0.000000 128.000000
v -125.722511 2.277488 122.306282
v 1.138743 -5.693717 133.693710
v 117.751312 -0.000001 131.416229
v 256.000000 0.000000 128.000000
v -256.000000 0.000000 0.000000
v -128.000000 0.000000 0.000000
v 0.000000 2.277486 0.000000
v 133.693710 -5.693715 -1.138743
v 256.000000 0.000000 0.000000
v -256.000000 0.000000 -128.000000
v -130.277481 -5.693717 -122.306282
v 7.971203 0.000003 -137.109955
v 125.722511 -0.000001 -124.583771
v 256.000000 0.000000 -128.000000
v -256.000000 0.000000 -256.000000
v -128.000000 0.000000 -256.000000
v 0.000000 0.000000 -256.000000
v 128.000000 0.000000 -256.000000
v 256.000000 0.000000 -256.000000
vt 1.0000 4.0000
vt 0.0000 4.0000
vt 0.0000 3.0000
vt 1.0000 3.0000
vt 0.0000 1.0000
vt -1.0000 1.0000
vt -1.0000 0.0000
vt 0.0000 0.0000
vt 0.0000 2.0000
vt -1.0000 2.0000
vt -1.0000 3.0000
vt -1.0000 4.0000
vt -2.0000 1.0000
vt -2.0000 0.0000
vt -2.0000 2.0000
vt -2.0000 3.0000
vt -2.0000 4.0000
vt -3.0000 1.0000
vt -3.0000 0.0000
vt -3.0000 2.0000
vt -3.0000 3.0000
vt -3.0000 4.0000
vt 1.0000 2.0000
vt 1.0000 1.0000
vt 1.0000 0.0000
vt 0.2551 0.4589
vt -0.0406 0.5611
vt -0.0045 0.8672
vt 0.2398 0.4549
vt 0.0369 0.3658
vt 0.1192 0.1735
vt 0.4866 0.0486
vt 0.8071 -0.0915
vt 0.8408 0.1795
vt 0.4827 0.4549
vt 0.3350 0.7136
vt 0.5245 0.6573
vt 0.2629 0.1293
vt 0.4827 -0.0509
vt 0.2553 -0.0151
vt 0.3077 0.4789
vt 0.5544 0.5949
vt 0.7241 0.5001
vt 0.2553 0.4907
vt 0.2198 0.2932
vt 0.1730 0.4599
vt -0.2507 0.4589
vt -0.2099 0.7436
vt 0.3704 0.1302
vt -0.0424 0.1047
vt 0.0187 0.0392
vt -0.1700 -0.2026
vt 0.0174 -0.1937
vt 0.0747 0.1757
vt 0.0553 -0.1331
vt -0.3157 0.1448
vt 0.4491 0.0993
vt 0.4281 0.0250
vt -0.0045 -0.0501
vt 0.2959 0.2378
vt 0.2551 -0.0469
vt -0.0045 0.3614
vt 0.1731 0.2449
vt -0.1296 0.3303
vt -0.1354 0.0702
vt -0.2115 0.2449
vt -0.0459 0.1111
vt 0.6788 0.1735
vt 0.1730 0.1192
vt 0.1730 -0.0459
vt -0.0777 0.3455
vt 0.0908 0.2060
vt 0.0577 0.3387
vt 0.3183 0.5805
vt 0.1902 0.1448
vt 0.3052 0.3256
vt 0.4348 0.1835
vt 0.4693 0.3039
vt 0.3078 0.3077
vt 0.1591 0.2733
vt 0.0577 -0.1671
vt 0.2943 0.2449
vt 0.3260 0.1225
vt 0.4599 0.1111
vt 0.4634 0.1267
vt 0.4480 0.2733
vt 0.3157 0.1448
vt 0.6357 0.3260
vt 0.3350 0.1795
vt 0.3013 -0.0915
vt 0.5245 0.0392
vt 0.4866 0.5544
vt 0.3614 0.4558
vt 0.0747 0.6815
vt 0.3787 0.7118
vt 0.0174 0.0279
vt -0.1700 0.1499
vt -0.1296 -0.1755
vt 0.3704 0.0702
vt 0.3762 0.3303
vt -0.0424 0.1267
vt 0.1299 0.1225
vt 0.2629 0.2627
vt -0.0192 0.0486
vt 0.3013 0.4143
vt -0.0366 0.3039
vt 0.3358 0.3032
vt 0.7799 0.3387
vt 0.0392 0.1515
vt -0.1937 0.0279
vt 0.0369 -0.1400
vt -0.1937 0.5337
vt 0.3358 0.6557
vt -0.0710 0.4808
vt -0.0578 0.2733
vt 0.4348 0.4808
vt 0.3078 0.4789
vt 0.6788 0.4599
vt 0.4693 -0.2019
vt 0.2629 0.6352
vt 0.0319 0.2183
vt 0.4652 0.0553
vt 0.7609 -0.0469
vt 0.4634 -0.4011
vt 0.3157 0.1902
vt 0.4652 0.5611
vt 0.4634 0.1047
vt 0.3614 -0.0501
vt 0.5013 0.3614
vt 0.9339 0.3455
vt 0.8017 0.2378
vt 0.8820 0.3303
vt 0.1731 -0.2609
vt 0.3607 0.0993
vt 0.3455 0.0250
vt 0.0319 0.5001
vt 0.5805 0.1757
vt 0.3298 0.3256
vt 0.2741 0.3387
vt 0.3787 0.2060
vt 0.0392 0.6573
vt 0.4281 0.3455
vt 0.6788 -0.0459
vt -0.2045 -0.0915
vt 0.8416 0.6557
vt 0.4693 0.6154
vn 0.0000 1.0000 0.0000
vn -0.0112 0.9998 -0.0117
vn -0.0086 0.9999 -0.0085
vn -0.0111 0.9999 -0.0105
vn 0.0089 0.9999 0.0026
vn 0.0006 0.9999 -0.0105
vn 0.0070 0.9998 -0.0160
vn -0.0088 0.9999 0.0000
vn 0.0097 0.9999 -0.0016
vn 0.0069 1.0000 0.0027
vn -0.0021 1.0000 0.0051
vn -0.0222 0.9997 -0.0001
vn -0.0016 1.0000 -0.0036
vn 0.0224 0.9997 0.0001
vn -0.0047 1.0000 0.0020
vn 0.0031 0.9999 0.0093
vn -0.0110 0.9998 0.0115
vn 0.0007 0.9997 0.0225
vn 0.0219 0.9995 0.0219
vn -0.0105 0.9998 0.0120
vn 0.0043 0.9998 -0.0175
vn 0.0114 0.9999 -0.0020
vn -0.0086 0.9999 0.0086
vn -0.1414 -0.9883 -0.0576
vn -0.7037 -0.7103 0.0183
vn -0.8369 -0.1169 -0.5346
vn 0.3832 0.4021 -0.8315
vn 0.8547 0.1195 -0.5052
vn 0.5630 -0.2746 -0.7794
vn -0.3696 0.9198 0.1318
vn 0.4339 0.8329 0.3434
vn 0.2979 0.9147 -0.2730
vn 0.8199 0.5157 -0.2483
vn -0.1386 0.8150 -0.5626
vn -0.2120 0.6572 -0.7232
vn -0.6639 0.4667 0.5843
vn -0.6794 0.6943 -0.2372
vn -0.3542 0.5124 -0.7822
vn 0.5268 -0.7324 -0.4313
vn -0.2585 -0.8212 -0.5087
vn 0.3141 -0.8078 0.4987
vn -0.0300 -0.5285 0.8484
vn 0.6716 0.4312 0.6025
vn 0.9380 0.1279 0.3222
vn -0.8815 0.4429 0.1636
vn -0.5935 -0.1639 0.7879
vn 0.0700 0.0585 -0.9958
vn -0.0783 -0.4006 -0.9129
vn 0.9331 -0.3472 0.0935
vn 0.6311 -0.1539 0.7602
vn -0.6504 0.5186 -0.5549
vn -0.6724 0.7052 -0.2250
vn -0.7535 0.3151 0.5770
vn 0.1212 0.1558 0.9803
vn 0.1064 0.7754 0.6224
vn 0.0886 0.0281 0.9957
vn 0.4722 -0.8811 -0.0241
usemtl textures/dev/ground
s 1
f 39/1/1 44/2/2 43/3/3 38/4/4
f 41/5/5 46/6/6 45/7/7 40/8/8
f 42/9/9 47/10/10 46/6/6 41/5/5
f 43/3/3 48/11/11 47/10/10 42/9/9
f 44/2/2 49/12/12 48/11/11 43/3/3
f 46/6/6 51/13/13 50/14/14 45/7/7
f 47/10/10 52/15/15 51/13/13 46/6/6
f 48/11/11 53/16/16 52/15/15 47/10/10
f 49/12/12 54/17/17 53/16/16 48/11/11
f 51/13/13 56/18/18 55/19/19 50/14/14
f 52/15/15 57/20/20 56/18/18 51/13/13
f 53/16/16 58/21/1 57/20/20 52/15/15
f 54/17/17 59/22/1 58/21/1 53/16/16
f 38/4/4 43/3/3 42/9/9 37/23/21
f 36/24/22 41/5/5 40/8/8 35/25/23
f 37/23/21 42/9/9 41/5/5 36/24/22
usemtl textures/dev/ground_rock.tga
f 28/26/24 26/27/25 18/28/26
f 12/29/27 16/30/28 23/31/29
f 2/32/30 27/33/31 17/34/32
f 12/35/27 17/36/32 6/37/33
f 5/38/34 12/39/27 9/40/35
f 21/41/36 2/42/30 1/43/37
f 9/44/35 12/35/27 32/45/38
f 14/46/39 28/47/24 24/48/40
f 28/26/24 10/49/41 7/50/42
f 6/51/33 3/52/43 31/53/44
f 22/54/45 26/55/25 4/56/46
f 34/57/47 25/58/48 18/59/26
f 24/60/40 28/61/24 18/62/26
f 20/63/49 15/64/50 10/65/41
f 23/31/29 20/66/49 14/67/39
f 34/57/47 12/35/27 23/68/29
f 23/69/29 14/70/39 25/71/48
f 8/72/51 34/57/47 18/59/26
f 30/73/52 9/44/35 32/45/38
f 22/74/45 4/75/46 33/76/53
f 29/77/54 11/78/55 21/79/36
f 21/41/36 33/76/53 19/80/56
f 5/38/34 9/40/35 30/81/52
f 12/35/27 34/57/47 32/45/38
f 20/82/49 13/83/57 14/84/39
f 7/85/42 19/86/56 4/87/46
f 28/26/24 13/88/57 10/49/41
f 17/89/32 27/90/31 6/91/33
f 21/79/36 11/78/55 2/92/30
f 18/93/26 22/94/45 8/95/51
f 8/72/51 32/45/38 34/57/47
f 31/96/44 3/97/43 15/98/50
f 10/99/41 15/100/50 7/101/42
f 13/102/57 20/63/49 10/65/41
f 5/103/34 2/104/30 17/89/32
f 27/105/31 11/106/55 3/107/43
f 33/76/53 1/43/37 30/108/52
f 33/76/53 21/41/36 1/43/37
f 6/109/33 31/110/44 16/111/28
f 16/30/28 31/112/44 20/66/49
f 15/100/50 3/113/43 29/114/54
f 15/100/50 29/114/54 19/115/56
f 29/116/54 21/117/36 19/86/56
f 28/26/24 14/118/39 13/88/57
f 2/32/30 11/119/55 27/33/31
f 12/35/27 5/120/34 17/36/32
f 1/121/37 2/104/30 5/103/34
f 26/122/25 28/123/24 7/124/42
f 4/125/46 26/126/25 7/127/42
f 22/54/45 18/128/26 26/55/25
f 18/129/26 25/130/48 24/131/40
f 7/85/42 15/132/50 19/86/56
f 31/96/44 15/98/50 20/133/49
f 23/31/29 16/30/28 20/66/49
f 34/134/47 23/31/29 25/135/48
f 1/136/37 5/120/34 30/73/52
f 8/72/51 30/73/52 32/45/38
f 33/76/53 30/108/52 22/137/45
f 4/87/46 19/86/56 33/138/53
f 22/54/45 30/139/52 8/140/51
f 12/29/27 6/141/33 16/30/28
f 25/142/48 14/143/39 24/60/40
f 6/51/33 27/144/31 3/52/43
f 29/116/54 3/145/43 11/146/55
