# Blender v2.78 (sub 0) OBJ File: 'terrain.blend'
# www.blender.org
mtllib 11_2.mtl
o 11_2_Cube.111
v -256.000000 0.000000 256.000000
v -128.000000 0.000000 256.000000
v 0.000000 0.000000 256.000000
v 128.000000 0.000000 256.000000
v 256.000000 0.000000 256.000000
v -256.000000 0.000000 128.000000
v -125.722511 2.277488 122.306282
v 1.138743 -5.693717 133.693710
v 117.751312 -0.000001 131.416229
v 256.000000 0.000000 128.000000
v -256.000000 0.000000 0.000000
v -128.000000 0.000000 0.000000
v 0.000000 13.756019 0.000000
v 133.693710 5.784818 -1.138743
v 256.000000 0.000000 0.000000
v -256.000000 0.000000 -128.000000
v -130.277481 -5.693717 -122.306282
v 7.971203 11.478536 -137.109955
v 125.722511 -0.000001 -124.583771
v 256.000000 0.000000 -128.000000
v -256.000000 0.000000 -256.000000
v -128.000000 0.000000 -256.000000
v 0.000000 0.000000 -256.000000
v 128.000000 0.000000 -256.000000
v 256.000000 0.000000 -256.000000
vt 1.0000 4.0000
vt 0.0000 4.0000
vt 0.0000 3.0000
vt 1.0000 3.0000
vt 0.0000 1.0000
vt -1.0000 1.0000
vt -1.0000 0.0000
vt 0.0000 0.0000
vt 0.0000 2.0000
vt -1.0000 2.0000
vt -1.0000 3.0000
vt -1.0000 4.0000
vt -2.0000 1.0000
vt -2.0000 0.0000
vt -2.0000 2.0000
vt -2.0000 3.0000
vt -2.0000 4.0000
vt -3.0000 1.0000
vt -3.0000 0.0000
vt -3.0000 2.0000
vt -3.0000 3.0000
vt -3.0000 4.0000
vt 1.0000 2.0000
vt 1.0000 1.0000
vt 1.0000 0.0000
vn 0.0000 1.0000 0.0000
vn 0.0114 0.9998 0.0120
vn 0.0018 0.9997 0.0255
vn -0.0111 0.9999 -0.0105
vn -0.0036 0.9999 0.0146
vn -0.0327 0.9995 0.0002
vn 0.0070 0.9998 -0.0160
vn -0.0088 0.9999 0.0000
vn -0.0010 0.9995 0.0302
vn -0.0155 0.9996 0.0246
vn 0.0333 0.9993 0.0145
vn 0.0225 0.9997 0.0001
vn -0.0346 0.9993 -0.0142
vn 0.0224 0.9997 0.0001
vn -0.0104 0.9994 -0.0334
vn 0.0388 0.9989 -0.0254
vn 0.0111 0.9998 -0.0117
vn -0.0223 0.9997 0.0000
vn 0.0219 0.9995 0.0219
vn -0.0107 0.9994 -0.0336
vn 0.0242 0.9994 -0.0232
vn 0.0043 0.9998 -0.0175
vn 0.0114 0.9999 -0.0020
vn -0.0086 0.9999 0.0086
usemtl textures/dev/ground
s 1
f 5/1/1 10/2/2 9/3/3 4/4/4
f 7/5/5 12/6/6 11/7/7 6/8/8
f 8/9/9 13/10/10 12/6/6 7/5/5
f 9/3/3 14/11/11 13/10/10 8/9/9
f 10/2/2 15/12/12 14/11/11 9/3/3
f 12/6/6 17/13/13 16/14/14 11/7/7
f 13/10/10 18/15/15 17/13/13 12/6/6
f 14/11/11 19/16/16 18/15/15 13/10/10
f 15/12/12 20/17/17 19/16/16 14/11/11
f 17/13/13 22/18/18 21/19/19 16/14/14
f 18/15/15 23/20/20 22/18/18 17/13/13
f 19/16/16 24/21/21 23/20/20 18/15/15
f 20/17/17 25/22/1 24/21/21 19/16/16
f 4/4/4 9/3/3 8/9/9 3/23/22
f 2/24/23 7/5/5 6/8/8 1/25/24
f 3/23/22 8/9/9 7/5/5 2/24/23
