# Blender v2.78 (sub 0) OBJ File: 'terrain.blend'
# www.blender.org
mtllib 11_3.mtl
o 11_3_Cube.112
v -256.000000 0.000000 256.000000
v -128.000000 0.000000 256.000000
v 0.000000 0.000000 256.000000
v 128.000000 0.000000 256.000000
v 256.000000 0.000000 256.000000
v -256.000000 0.000000 128.000000
v -125.722511 2.277488 122.306282
v 1.138743 -5.693717 133.693710
v 117.751312 -0.000001 131.416229
v 256.000000 0.000000 128.000000
v -256.000000 0.000000 0.000000
v -128.000000 0.000000 0.000000
v 0.000000 -17.399994 0.000000
v 133.693710 -5.693715 -1.138743
v 256.000000 0.000000 0.000000
v -256.000000 0.000000 -128.000000
v -130.277481 -5.693717 -122.306282
v 7.971203 -19.677477 -137.109955
v 125.722511 -0.000001 -124.583771
v 256.000000 0.000000 -128.000000
v -256.000000 0.000000 -256.000000
v -128.000000 0.000000 -256.000000
v 0.000000 0.000000 -256.000000
v 128.000000 0.000000 -256.000000
v 256.000000 0.000000 -256.000000
vt 1.0000 4.0000
vt 0.0000 4.0000
vt 0.0000 3.0000
vt 1.0000 3.0000
vt 0.0000 1.0000
vt -1.0000 1.0000
vt -1.0000 0.0000
vt 0.0000 0.0000
vt 0.0000 2.0000
vt -1.0000 2.0000
vt -1.0000 3.0000
vt -1.0000 4.0000
vt -2.0000 1.0000
vt -2.0000 0.0000
vt -2.0000 2.0000
vt -2.0000 3.0000
vt -2.0000 4.0000
vt -3.0000 1.0000
vt -3.0000 0.0000
vt -3.0000 2.0000
vt -3.0000 3.0000
vt -3.0000 4.0000
vt 1.0000 2.0000
vt 1.0000 1.0000
vt 1.0000 0.0000
vn -0.0000 1.0000 -0.0000
vn -0.0090 0.9999 -0.0090
vn 0.1014 0.9933 -0.0556
vn -0.0701 0.9952 -0.0689
vn -0.0220 0.9995 -0.0232
vn 0.0229 0.9995 -0.0229
vn 0.1155 0.9929 -0.0280
vn -0.1244 0.9921 0.0130
vn -0.0223 0.9995 0.0233
vn 0.0219 0.9995 0.0219
vn 0.0577 0.9935 0.0985
vn -0.0836 0.9933 0.0800
vn -0.0235 0.9995 -0.0222
vn -0.0086 0.9999 0.0086
vn 0.0318 0.9994 -0.0129
usemtl textures/dev/ground
s off
f 5/1/1 10/2/1 9/3/1 4/4/1
f 7/5/2 12/6/2 11/7/2 6/8/2
f 8/9/3 13/10/3 12/6/3 7/5/3
f 9/3/4 14/11/4 13/10/4 8/9/4
f 10/2/5 15/12/5 14/11/5 9/3/5
f 12/6/6 17/13/6 16/14/6 11/7/6
f 13/10/7 18/15/7 17/13/7 12/6/7
f 14/11/8 19/16/8 18/15/8 13/10/8
f 15/12/9 20/17/9 19/16/9 14/11/9
f 17/13/10 22/18/10 21/19/10 16/14/10
f 18/15/11 23/20/11 22/18/11 17/13/11
f 19/16/12 24/21/12 23/20/12 18/15/12
f 20/17/1 25/22/1 24/21/1 19/16/1
f 4/4/13 9/3/13 8/9/13 3/23/13
f 2/24/14 7/5/14 6/8/14 1/25/14
f 3/23/15 8/9/15 7/5/15 2/24/15
