# Blender v2.78 (sub 0) OBJ File: 'terrain.blend'
# www.blender.org
mtllib 11_3.mtl
o 11_3_Cube.112
v -256.000000 0.000000 256.000000
v -128.000000 0.000000 256.000000
v 0.000000 0.000000 256.000000
v 128.000000 0.000000 256.000000
v 256.000000 0.000000 256.000000
v -256.000000 0.000000 128.000000
v -125.722511 2.277488 122.306282
v 1.138743 -5.693717 133.693710
v 117.751312 -0.000001 131.416229
v 256.000000 0.000000 128.000000
v -256.000000 0.000000 0.000000
v -128.000000 0.000000 0.000000
v 0.000000 -17.399994 0.000000
v 133.693710 -5.693715 -1.138743
v 256.000000 0.000000 0.000000
v -256.000000 0.000000 -128.000000
v -130.277481 -5.693717 -122.306282
v 7.971203 -19.677477 -137.109955
v 125.722511 -0.000001 -124.583771
v 256.000000 0.000000 -128.000000
v -256.000000 0.000000 -256.000000
v -128.000000 0.000000 -256.000000
v 0.000000 0.000000 -256.000000
v 128.000000 0.000000 -256.000000
v 256.000000 0.000000 -256.000000
vt 1.0000 4.0000
vt 0.0000 4.0000
vt 0.0000 3.0000
vt 1.0000 3.0000
vt 0.0000 1.0000
vt -1.0000 1.0000
vt -1.0000 0.0000
vt 0.0000 0.0000
vt 0.0000 2.0000
vt -1.0000 2.0000
vt -1.0000 3.0000
vt -1.0000 4.0000
vt -2.0000 1.0000
vt -2.0000 0.0000
vt -2.0000 2.0000
vt -2.0000 3.0000
vt -2.0000 4.0000
vt -3.0000 1.0000
vt -3.0000 0.0000
vt -3.0000 2.0000
vt -3.0000 3.0000
vt -3.0000 4.0000
vt 1.0000 2.0000
vt 1.0000 1.0000
vt 1.0000 0.0000
vn 0.0000 1.0000 0.0000
vn -0.0112 0.9998 -0.0117
vn -0.0302 0.9991 -0.0298
vn -0.0111 0.9999 -0.0105
vn 0.0303 0.9994 -0.0182
vn 0.0577 0.9979 -0.0288
vn 0.0070 0.9998 -0.0160
vn -0.0088 0.9999 0.0000
vn 0.0088 0.9992 -0.0393
vn 0.0081 0.9993 -0.0355
vn -0.0580 0.9982 -0.0128
vn -0.0222 0.9997 -0.0001
vn 0.0553 0.9984 0.0148
vn 0.0224 0.9997 0.0001
vn -0.0126 0.9989 0.0443
vn -0.0596 0.9978 0.0282
vn -0.0110 0.9998 0.0115
vn 0.0400 0.9973 0.0607
vn 0.0219 0.9995 0.0219
vn -0.0100 0.9959 0.0898
vn -0.0414 0.9984 0.0396
vn 0.0043 0.9998 -0.0175
vn 0.0114 0.9999 -0.0020
vn -0.0086 0.9999 0.0086
usemtl textures/dev/ground
s 1
f 5/1/1 10/2/2 9/3/3 4/4/4
f 7/5/5 12/6/6 11/7/7 6/8/8
f 8/9/9 13/10/10 12/6/6 7/5/5
f 9/3/3 14/11/11 13/10/10 8/9/9
f 10/2/2 15/12/12 14/11/11 9/3/3
f 12/6/6 17/13/13 16/14/14 11/7/7
f 13/10/10 18/15/15 17/13/13 12/6/6
f 14/11/11 19/16/16 18/15/15 13/10/10
f 15/12/12 20/17/17 19/16/16 14/11/11
f 17/13/13 22/18/18 21/19/19 16/14/14
f 18/15/15 23/20/20 22/18/18 17/13/13
f 19/16/16 24/21/21 23/20/20 18/15/15
f 20/17/17 25/22/1 24/21/21 19/16/16
f 4/4/4 9/3/3 8/9/9 3/23/22
f 2/24/23 7/5/5 6/8/8 1/25/24
f 3/23/22 8/9/9 7/5/5 2/24/23
