# Blender v2.78 (sub 0) OBJ File: 'terrain.blend'
# www.blender.org
mtllib 11_4.mtl
o 11_4_Cube.113
v -128.767838 34.816158 164.276978
v -84.397179 84.404510 58.430367
v 5.196022 -20.519064 105.211647
v -159.641479 51.696236 130.538635
v -172.482727 -48.923420 65.361504
v -85.098145 -6.281245 171.795349
v -133.830170 23.606567 169.229950
v -86.478462 -57.531223 41.855614
v -139.014648 63.628971 83.759689
v -119.741783 6.817880 33.475838
v -153.024750 0.381751 132.609283
v -139.867477 -16.403481 159.016602
v -184.564774 -42.236130 84.564194
v -56.582504 -76.019287 99.381180
v -27.912331 28.827881 142.095398
v -127.727081 -26.028671 46.170513
v -5.118584 2.769787 60.153759
v -107.206123 -25.685368 165.070923
v -160.084061 48.669720 102.983948
v -71.088715 -81.088219 88.814430
v -182.420990 -43.393440 118.220985
v -181.037445 -61.861847 111.453514
v -100.835327 -65.132072 142.551117
v -35.002453 -28.649868 33.261658
v -34.145786 69.976997 75.392441
v -14.309372 -41.931732 48.011833
v -5.012474 -48.394520 102.647682
v -45.647045 -34.830112 149.842896
v -34.972233 -41.862381 127.193008
v -109.226669 -77.514214 115.806870
v -39.838486 77.144714 110.936508
v -75.253708 95.250145 77.667084
v -22.759773 52.916950 109.590294
v -173.715179 -1.681840 105.050072
v 8.197884 -1.349574 84.989227
v -53.909695 62.452259 154.913513
v -52.010330 24.700298 169.331207
v -60.645119 73.113197 43.601295
v -161.233276 -69.660805 80.141830
v -84.165726 -69.699715 133.557678
v 8.578079 -29.551235 75.283279
v -5.472557 -53.558563 75.577576
v -52.223206 11.168023 40.232418
v -170.131104 2.541860 88.504562
v -98.800667 39.208782 42.761562
v -256.000000 0.000000 256.000000
v -128.000000 0.000000 256.000000
v 0.000000 0.000000 256.000000
v 128.000000 0.000000 256.000000
v 256.000000 0.000000 256.000000
v -256.000000 0.000000 128.000000
v -125.722511 2.277488 122.306282
v 1.138743 -5.693717 133.693710
v 117.751312 -0.000001 131.416229
v 256.000000 0.000000 128.000000
v -256.000000 0.000000 0.000000
v -128.000000 0.000000 0.000000
v 0.000000 2.277486 0.000000
v 133.693710 -5.693715 -1.138743
v 256.000000 0.000000 0.000000
v -256.000000 0.000000 -128.000000
v -130.277481 -5.693717 -122.306282
v 7.971203 0.000003 -137.109955
v 125.722511 -0.000001 -124.583771
v 256.000000 0.000000 -128.000000
v -256.000000 0.000000 -256.000000
v -128.000000 0.000000 -256.000000
v 0.000000 0.000000 -256.000000
v 128.000000 0.000000 -256.000000
v 256.000000 0.000000 -256.000000
vt 1.0000 4.0000
vt 0.0000 4.0000
vt 0.0000 3.0000
vt 1.0000 3.0000
vt 0.0000 1.0000
vt -1.0000 1.0000
vt -1.0000 0.0000
vt 0.0000 0.0000
vt 0.0000 2.0000
vt -1.0000 2.0000
vt -1.0000 3.0000
vt -1.0000 4.0000
vt -2.0000 1.0000
vt -2.0000 0.0000
vt -2.0000 2.0000
vt -2.0000 3.0000
vt -2.0000 4.0000
vt -3.0000 1.0000
vt -3.0000 0.0000
vt -3.0000 2.0000
vt -3.0000 3.0000
vt -3.0000 4.0000
vt 1.0000 2.0000
vt 1.0000 1.0000
vt 1.0000 0.0000
vt 0.7093 0.3262
vt 0.9092 0.3731
vt 0.6440 -0.0004
vt 0.6440 0.7212
vt 0.9931 0.4418
vt 0.6449 0.3404
vt 0.6252 0.3348
vt 0.4269 -0.0438
vt 0.8800 -0.0613
vt 0.0755 0.1157
vt -0.2947 0.0262
vt -0.1697 0.0967
vt 0.2116 0.1560
vt 0.0906 0.1728
vt 0.1098 0.3147
vt 0.7038 0.4859
vt 0.4693 0.2593
vt 0.7821 0.3793
vt 0.3866 0.4083
vt 0.7098 0.4175
vt 0.5538 0.1060
vt 0.7650 0.0162
vt 0.6222 -0.2100
vt 0.3282 0.0741
vt 0.6418 0.4133
vt 0.3793 0.3999
vt 0.2808 0.0052
vt 0.4269 0.6778
vt 0.3947 1.0971
vt 0.1579 0.9041
vt 0.4140 0.3273
vt 0.8720 0.2508
vt 0.4726 0.2352
vt 0.4859 0.5501
vt 0.7093 0.1310
vt 0.6304 -0.0118
vt 0.9092 0.2018
vt -0.0786 0.6955
vt 0.6449 0.1401
vt 0.6430 -0.0261
vt 0.4383 -0.1117
vt 0.0755 0.4783
vt -0.1697 0.5769
vt -0.2490 0.2870
vt 0.4680 0.6841
vt 0.2808 0.7267
vt 0.2642 0.5263
vt 0.0276 0.6735
vt -0.0798 1.1349
vt -0.2536 0.6841
vt 0.2716 0.4418
vt 0.3938 0.6140
vt 0.4936 0.2440
vt 0.4383 0.6099
vt 0.5219 0.8135
vt 0.6449 0.8616
vt -0.2832 0.6099
vt 0.3495 0.3506
vt 0.1728 0.4585
vt 0.3282 0.7957
vt 0.6099 0.3795
vt 0.0434 0.0162
vt 0.1311 -0.0004
vt 0.0919 -0.2918
vt 0.7761 0.6735
vt 0.8554 0.4118
vt 0.4562 0.3727
vt 0.6351 0.4118
vt 0.7492 0.6735
vt 0.2606 0.5263
vt 0.1584 0.6603
vt 0.5519 0.5769
vt 0.2116 0.4101
vt 0.1959 0.4562
vt -0.3076 0.3273
vt -0.2280 0.6873
vt 0.4693 0.5715
vt 0.3947 0.3755
vt 0.0906 0.4585
vt 0.0269 0.7611
vt 0.0269 0.0396
vt 0.1579 0.1825
vt -0.1369 0.0741
vt 0.5219 0.4298
vt 0.0906 -0.2631
vt 0.2116 -0.3114
vt 0.4726 0.2870
vt 0.1630 0.3348
vt 0.1355 -0.0613
vt -0.0314 0.3866
vt -0.0888 0.3495
vt 0.6106 0.4473
vt 0.7840 0.3434
vt 0.5243 0.1225
vt 0.1876 0.3731
vt 0.7761 -0.0481
vt 0.6418 1.1349
vt 0.0919 0.4298
vt -0.1117 0.3795
vt -0.0993 0.5116
vt 0.0434 0.7377
vt 0.9175 0.4562
vt 0.3947 0.0848
vt 0.0606 0.3793
vt -0.2522 0.2593
vt -0.0963 0.1630
vt 0.0624 0.3434
vt -0.1110 0.4473
vt -0.1044 0.5672
vt 0.1856 0.3434
vt 0.1027 0.5672
vt -0.0798 0.4133
vt 0.6172 0.1027
vt 0.7038 -0.2357
vt 0.8390 -0.0798
vt 0.6172 0.5672
vt 0.1876 0.2018
vt -0.0912 -0.0118
vt -0.0314 -0.3350
vt 0.4693 -0.4623
vt 0.6304 0.7098
vt 0.6902 0.3866
vt 1.3388 0.8242
vt 0.6430 0.6955
vt 0.8314 0.3147
vt 1.2152 -0.0343
vt 1.2152 0.2440
vt 0.1338 0.6351
vt -0.2947 0.6778
vt 0.2508 0.3750
vt 0.1504 0.3750
vt 0.1856 1.0650
vt 1.1154 0.6140
vt 0.9092 1.0946
vt 0.1876 1.0946
vt 0.5243 0.8440
vt 0.1310 0.3262
vt -0.0118 0.4175
vt 0.1668 0.7611
vt -0.0888 0.3506
vt 0.6222 0.5116
vt 0.1355 0.6603
vt 0.4936 0.6873
vt 0.7970 0.1157
vn -0.0000 1.0000 -0.0000
vn -0.0090 0.9999 -0.0090
vn 0.0213 0.9995 0.0219
vn 0.0092 0.9999 0.0091
vn -0.0220 0.9995 -0.0232
vn 0.0229 0.9995 -0.0229
vn -0.0317 0.9990 -0.0314
vn 0.0311 0.9994 0.0131
vn -0.0223 0.9995 0.0233
vn 0.0219 0.9995 0.0219
vn -0.0201 0.9995 0.0230
vn -0.0235 0.9995 -0.0222
vn -0.0086 0.9999 0.0086
vn 0.0318 0.9994 -0.0129
vn -0.7541 0.3405 -0.5615
vn -0.5195 0.3701 -0.7701
vn 0.6720 -0.0979 0.7341
vn 0.0560 -0.9458 0.3200
vn -0.0188 -0.9050 0.4249
vn 0.7554 0.5096 0.4120
vn -0.7533 -0.0707 0.6539
vn -0.7658 0.3335 0.5499
vn -0.7534 0.3164 0.5765
vn 0.8614 0.5068 -0.0340
vn 0.3156 -0.2646 0.9113
vn 0.3740 -0.9248 -0.0697
vn 0.8176 0.5755 0.0149
vn -0.6222 0.7792 -0.0756
vn -0.1218 -0.9917 -0.0408
vn -0.7274 -0.6136 -0.3072
vn 0.3439 -0.7141 0.6098
vn 0.8804 0.1649 -0.4447
vn 0.4171 0.3685 -0.8308
vn -0.3070 -0.2772 -0.9104
vn -0.7798 -0.5500 -0.2991
vn -0.2154 -0.8587 0.4651
vn -0.8706 0.4646 0.1617
vn -0.3259 -0.5264 0.7853
vn -0.9412 0.3143 -0.1237
vn 0.0842 0.2071 -0.9747
vn 0.5012 0.2359 -0.8326
vn 0.7615 0.0194 -0.6479
vn 0.9118 -0.3532 0.2096
vn 0.4818 -0.7465 0.4589
vn 0.2237 -0.8398 -0.4946
vn 0.6955 0.2866 0.6588
vn 0.1498 -0.4718 0.8689
vn -0.8903 0.0182 0.4551
vn -0.2086 -0.0995 0.9729
vn -0.7588 0.2957 -0.5804
vn 0.1668 -0.5073 0.8455
vn 0.4720 -0.7167 0.5134
vn 0.8692 0.3078 0.3870
vn 0.1183 -0.9488 0.2928
vn -0.0414 0.4194 0.9069
vn -0.3392 0.4028 -0.8501
vn -0.7944 -0.0781 0.6023
vn -0.5086 0.4222 -0.7504
vn -0.0234 0.0511 -0.9984
vn 0.8206 0.4377 -0.3674
vn -0.9895 0.1276 0.0674
vn 0.2682 -0.8538 -0.4461
vn -0.0059 0.3565 0.9343
vn 0.7823 0.4347 0.4462
vn 0.0810 0.8513 -0.5184
vn 0.4828 0.8143 -0.3221
vn 0.5181 0.8507 -0.0886
vn -0.4485 0.8528 -0.2676
vn -0.4414 0.8967 0.0341
vn -0.2627 0.8599 0.4377
vn -0.1089 0.8455 0.5227
vn -0.2178 -0.9704 0.1039
vn -0.2602 -0.6500 -0.7140
vn -0.2781 -0.2367 -0.9309
vn 0.1928 -0.5793 -0.7920
vn 0.6751 -0.3088 0.6700
vn 0.7724 -0.4575 -0.4406
vn 0.8606 -0.5027 0.0813
vn 0.7674 0.1384 -0.6260
vn -0.0716 -0.1651 -0.9837
vn -0.7317 -0.0836 -0.6765
vn -0.7122 0.3140 -0.6278
vn -0.4488 0.5021 -0.7393
vn -0.9641 0.2585 -0.0617
vn -0.2946 -0.5092 0.8086
vn -0.1836 -0.2170 0.9587
vn -0.5388 -0.3251 0.7771
vn 0.0827 0.2249 -0.9709
vn 0.9923 -0.0281 0.1206
vn 0.7522 -0.1310 0.6457
vn -0.0730 -0.9008 -0.4280
vn 0.1102 -0.9576 0.2660
vn 0.1403 0.9247 0.3538
vn -0.0023 0.0818 0.9966
vn 0.4583 -0.8744 0.1590
usemtl textures/dev/ground
s off
f 50/1/1 55/2/1 54/3/1 49/4/1
f 52/5/2 57/6/2 56/7/2 51/8/2
f 53/9/3 58/10/3 57/6/3 52/5/3
f 54/3/4 59/11/4 58/10/4 53/9/4
f 55/2/5 60/12/5 59/11/5 54/3/5
f 57/6/6 62/13/6 61/14/6 56/7/6
f 58/10/7 63/15/7 62/13/7 57/6/7
f 59/11/8 64/16/8 63/15/8 58/10/8
f 60/12/9 65/17/9 64/16/9 59/11/9
f 62/13/10 67/18/10 66/19/10 61/14/10
f 63/15/11 68/20/11 67/18/11 62/13/11
f 64/16/1 69/21/1 68/20/1 63/15/1
f 65/17/1 70/22/1 69/21/1 64/16/1
f 49/4/12 54/3/12 53/9/12 48/23/12
f 47/24/13 52/5/13 51/8/13 46/25/13
f 48/23/14 53/9/14 52/5/14 47/24/14
usemtl textures/dev/ground_rock.tga
f 19/26/15 9/27/15 44/28/15
f 44/29/16 16/30/16 5/31/16
f 15/32/17 28/33/17 3/34/17
f 27/35/18 28/36/18 29/37/18
f 40/38/19 23/39/19 30/40/19
f 31/41/20 36/42/20 33/43/20
f 1/44/21 4/45/21 11/46/21
f 11/46/22 34/47/22 21/48/22
f 12/49/23 11/46/23 21/48/23
f 25/50/24 33/51/24 35/52/24
f 28/53/25 37/54/25 6/55/25
f 20/56/26 42/57/26 14/58/26
f 31/59/27 33/51/27 25/50/27
f 19/60/28 4/61/28 9/62/28
f 20/56/29 30/40/29 39/63/29
f 5/64/30 39/65/30 22/66/30
f 27/67/31 29/68/31 14/69/31
f 17/70/32 35/71/32 41/72/32
f 43/73/33 25/74/33 17/75/33
f 16/76/34 10/77/34 8/78/34
f 22/79/35 13/80/35 5/81/35
f 23/39/36 22/82/36 30/40/36
f 7/83/37 1/44/37 11/46/37
f 23/84/38 12/85/38 22/86/38
f 34/87/39 44/88/39 13/89/39
f 10/77/40 43/90/40 24/91/40
f 17/70/41 26/92/41 24/93/41 43/94/41
f 26/92/42 17/70/42 41/72/42
f 41/95/43 3/96/43 27/67/43
f 29/97/44 28/53/44 40/98/44
f 26/99/45 20/100/45 8/101/45
f 36/102/46 37/103/46 15/32/46
f 23/104/47 6/55/47 18/105/47
f 12/49/48 7/83/48 11/46/48
f 18/106/49 6/107/49 12/108/49
f 13/109/50 44/29/50 5/31/50
f 6/107/51 23/110/51 40/111/51 28/33/51
f 14/112/52 29/97/52 40/98/52
f 15/113/53 3/114/53 35/52/53 33/51/53
f 20/56/54 14/58/54 30/40/54
f 36/42/55 1/115/55 7/116/55
f 2/117/56 38/118/56 45/119/56
f 11/46/57 4/45/57 34/47/57
f 9/120/58 2/117/58 45/119/58
f 45/119/59 38/118/59 43/121/59
f 17/70/60 25/122/60 35/71/60
f 13/123/61 22/124/61 21/125/61 34/126/61
f 20/56/62 26/127/62 42/57/62
f 36/42/63 7/116/63 37/128/63
f 33/129/64 36/130/64 15/131/64
f 38/132/65 2/133/65 32/134/65
f 38/135/66 32/136/66 25/137/66
f 32/138/67 31/139/67 25/140/67
f 2/117/68 9/120/68 32/141/68
f 9/142/69 4/143/69 32/138/69
f 32/138/70 1/144/70 36/145/70
f 4/146/71 1/147/71 32/148/71
f 39/149/72 30/150/72 22/79/72
f 5/64/73 8/151/73 39/65/73
f 5/31/74 16/30/74 8/152/74
f 24/153/75 26/99/75 8/101/75
f 3/96/76 28/154/76 27/67/76
f 26/92/77 41/72/77 42/155/77
f 42/156/78 41/95/78 27/67/78
f 43/73/79 38/157/79 25/74/79
f 8/78/80 10/77/80 24/91/80
f 44/29/81 10/158/81 16/30/81
f 44/29/82 9/159/82 10/158/82
f 10/77/83 9/160/83 45/161/83
f 19/162/84 44/88/84 34/87/84 4/163/84
f 23/84/85 18/164/85 12/85/85
f 6/107/86 7/165/86 12/108/86
f 22/86/87 12/85/87 21/166/87
f 10/77/88 45/161/88 43/90/88
f 41/72/89 35/71/89 3/167/89
f 15/32/90 37/103/90 28/33/90
f 8/168/91 20/56/91 39/63/91
f 30/40/92 14/58/92 40/38/92
f 32/138/93 36/145/93 31/139/93
f 37/103/94 7/165/94 6/107/94
f 14/58/95 42/57/95 27/169/95
