# Blender v2.78 (sub 0) OBJ File: 'terrain.blend'
# www.blender.org
mtllib Circle.mtl
o Circle
v -0.000504 0.000000 -1879.197021
v -366.613403 0.000000 -1843.088379
v -719.137634 0.000000 -1736.151489
v -1044.025513 0.000000 -1562.495361
v -1328.792358 0.000000 -1328.793091
v -1562.494629 0.000000 -1044.026123
v -1736.150879 0.000000 -719.138367
v -1843.087769 0.000000 -366.614227
v -1879.195801 0.000000 -0.001376
v -1843.087524 0.000000 366.611420
v -1736.150513 0.000000 719.135437
v -1562.494507 0.000000 1044.023560
v -1328.792603 0.000000 1328.790649
v -1044.025391 0.000000 1562.492920
v -719.137146 0.000000 1736.148926
v -366.612885 0.000000 1843.085815
v 0.000109 0.000000 1879.193970
v 366.613129 0.000000 1843.085938
v 719.137146 0.000000 1736.148926
v 1044.025757 0.000000 1562.492188
v 1328.792114 0.000000 1328.789917
v 1562.494385 0.000000 1044.022827
v 1736.150146 0.000000 719.134155
v 1843.087402 0.000000 366.609985
v 1879.195312 0.000000 -0.003048
v 1843.086060 0.000000 -366.616058
v 1736.149048 0.000000 -719.140076
v 1562.492188 0.000000 -1044.028198
v 1328.789673 0.000000 -1328.794800
v 1044.022583 0.000000 -1562.496460
v 719.133850 0.000000 -1736.152588
v 366.609558 0.000000 -1843.088989
v -0.000247 0.000000 -0.000636
v -0.000727 0.000000 -16340.832031
v -3187.938965 0.000000 -16026.848633
v -6253.366699 0.000000 -15096.960938
v -9078.480469 0.000000 -13586.903320
v -11554.714844 0.000000 -11554.714844
v -13586.906250 0.000000 -9078.480469
v -15096.960938 0.000000 -6253.366699
v -16026.848633 0.000000 -3187.939697
v -16340.832031 0.000000 -0.002305
v -16026.848633 0.000000 3187.935059
v -15096.960938 0.000000 6253.361816
v -13586.906250 0.000000 9078.477539
v -11554.714844 0.000000 11554.711914
v -9078.480469 0.000000 13586.903320
v -6253.362793 0.000000 15096.960938
v -3187.935059 0.000000 16026.848633
v 0.004598 0.000000 16340.832031
v 3187.944092 0.000000 16026.843750
v 6253.372070 0.000000 15096.956055
v 9078.485352 0.000000 13586.898438
v 11554.719727 0.000000 11554.704102
v 13586.911133 0.000000 9078.469727
v 15096.960938 0.000000 6253.352539
v 16026.848633 0.000000 3187.923340
v 16340.832031 0.000000 -0.016850
v 16026.843750 0.000000 -3187.955811
v 15096.951172 0.000000 -6253.383789
v 13586.893555 0.000000 -9078.496094
v 11554.696289 0.000000 -11554.727539
v 9078.459961 0.000000 -13586.918945
v 6253.342285 0.000000 -15096.971680
v 3187.912842 0.000000 -16026.853516
v -0.001698 14893.987305 -8170.418457
v -1593.970703 14893.987305 -8013.426758
v -3126.684814 14893.987305 -7548.483398
v -4539.241699 14893.987305 -6793.454590
v -5777.357422 14893.987305 -5777.359863
v -6793.454590 14893.987305 -4539.242676
v -7548.480469 14893.987305 -3126.686768
v -8013.424316 14893.987305 -1593.972656
v -8170.416016 14893.987305 -0.004115
v -8013.424316 14893.987305 1593.964600
v -7548.480469 14893.987305 3126.677490
v -6793.454590 14893.987305 4539.236328
v -5777.357422 14893.987305 5777.353516
v -4539.240234 14893.987305 6793.449219
v -3126.682861 14893.987305 7548.478027
v -1593.968872 14893.987305 8013.421875
v 0.000965 14893.987305 8170.410645
v 1593.970703 14893.987305 8013.418945
v 3126.684814 14893.987305 7548.475586
v 4539.242676 14893.987305 6793.446777
v 5777.358887 14893.987305 5777.349609
v 6793.454590 14893.987305 4539.232422
v 7548.480469 14893.987305 3126.673096
v 8013.424316 14893.987305 1593.958374
v 8170.416016 14893.987305 -0.011388
v 8013.418945 14893.987305 -1593.981201
v 7548.475586 14893.987305 -3126.694580
v 6793.445312 14893.987305 -4539.251953
v 5777.347168 14893.987305 -5777.366699
v 4539.229980 14893.987305 -6793.462402
v 3126.669678 14893.987305 -7548.488281
v 1593.955200 14893.987305 -8013.429688
vt -48.1325 116.2019
vt -24.5378 123.3592
vt -49.0754 246.7184
vt -96.2648 232.4037
vt -0.0001 0.0000
vt -69.8775 104.5789
vt -88.9371 88.9371
vt -104.5790 69.8774
vt -116.2019 48.1324
vt -123.3593 24.5377
vt -125.7760 0.0001
vt -123.3593 -24.5376
vt -116.2019 -48.1323
vt -104.5790 -69.8773
vt -88.9371 -88.9369
vt -69.8775 -104.5788
vt -48.1325 -116.2018
vt -24.5378 -123.3591
vt -0.0001 -125.7759
vt 24.5376 -123.3591
vt 48.1323 -116.2017
vt 69.8773 -104.5788
vt 88.9370 -88.9369
vt 104.5788 -69.8772
vt 116.2017 -48.1322
vt 123.3591 -24.5375
vt 125.7758 0.0002
vt 123.3590 24.5379
vt 116.2016 48.1326
vt 104.5787 69.8776
vt 88.9368 88.9372
vt 69.8771 104.5790
vt 48.1321 116.2019
vt 24.5374 123.3593
vt -0.0001 125.7760
vt 177.8737 177.8743
vt 139.7543 209.1580
vt -49.0754 -246.7183
vt -0.0000 -251.5518
vt -139.7548 209.1578
vt 96.2643 232.4038
vt 49.0753 -246.7183
vt -177.8741 177.8741
vt 49.0749 246.7185
vt 96.2647 -232.4035
vt -209.1578 139.7547
vt -0.0001 251.5519
vt 139.7547 -209.1576
vt -232.4037 96.2647
vt 177.8740 -177.8739
vt -246.7184 49.0754
vt 209.1577 -139.7546
vt -251.5520 0.0000
vt 232.4036 -96.2645
vt -246.7185 -49.0753
vt 246.7183 -49.0751
vt -232.4037 -96.2647
vt 251.5517 0.0003
vt -209.1578 -139.7547
vt 246.7182 49.0756
vt -177.8741 -177.8740
vt 232.4034 96.2650
vt -139.7548 -209.1577
vt 209.1575 139.7550
vt -96.2648 -232.4036
vt 0.3878 0.0136
vt 0.3462 0.0136
vt 0.4130 0.9808
vt 0.4337 0.9808
vt 0.4328 0.0136
vt 0.4797 0.0136
vt 0.4797 0.9808
vt 0.4563 0.9808
vt 0.6496 0.0136
vt 0.6795 0.0136
vt 0.5796 0.9808
vt 0.5647 0.9808
vt 0.4328 0.0136
vt 0.4563 0.9808
vt 0.3878 0.0136
vt 0.4337 0.9808
vt 0.6132 0.0136
vt 0.5465 0.9808
vt 0.4797 0.0136
vt 0.4797 0.9808
vt 0.3462 0.0136
vt 0.4130 0.9808
vt 0.5717 0.0136
vt 0.5257 0.9808
vt 0.5266 0.0136
vt 0.5032 0.9808
vt 0.3098 0.0136
vt 0.3948 0.9808
vt 0.5266 0.0136
vt 0.5032 0.9808
vt 0.5717 0.0136
vt 0.5257 0.9808
vt 0.2799 0.0136
vt 0.3798 0.9808
vt 0.6132 0.0136
vt 0.5465 0.9808
vt 0.2577 0.0136
vt 0.3687 0.9808
vt 0.6496 0.0136
vt 0.5647 0.9808
vt 0.2441 0.0136
vt 0.3619 0.9808
vt 0.6795 0.0136
vt 0.5796 0.9808
vt 0.2395 0.0136
vt 0.3596 0.9808
vt 0.7017 0.0136
vt 0.5907 0.9808
vt 0.2441 0.0136
vt 0.3619 0.9808
vt 0.7154 0.0136
vt 0.5975 0.9808
vt 0.2577 0.0136
vt 0.3687 0.9808
vt 0.7200 0.0136
vt 0.5998 0.9808
vt 0.2799 0.0136
vt 0.3798 0.9808
vt 0.7154 0.0136
vt 0.5975 0.9808
vt 0.3098 0.0136
vt 0.3948 0.9808
vt 0.7017 0.0136
vt 0.5907 0.9808
vn 0.0000 1.0000 0.0000
vn 0.4138 -0.4792 -0.7741
vn 0.0860 -0.4792 0.8735
vn -0.6785 -0.4792 0.5568
vn 0.2548 -0.4792 -0.8399
vn 0.2548 -0.4792 0.8399
vn -0.5568 -0.4792 0.6785
vn 0.0860 -0.4792 -0.8735
vn 0.4138 -0.4792 0.7741
vn -0.4138 -0.4792 0.7741
vn -0.0860 -0.4792 -0.8735
vn 0.5568 -0.4792 0.6785
vn -0.2548 -0.4792 0.8399
vn -0.2548 -0.4792 -0.8399
vn 0.6785 -0.4792 0.5568
vn -0.0860 -0.4792 0.8735
vn -0.4138 -0.4792 -0.7741
vn 0.7741 -0.4792 0.4138
vn -0.5568 -0.4792 -0.6785
vn 0.8399 -0.4792 0.2548
vn -0.6785 -0.4792 -0.5568
vn 0.8735 -0.4792 0.0860
vn -0.7741 -0.4792 -0.4138
vn 0.8735 -0.4792 -0.0860
vn -0.8399 -0.4792 -0.2548
vn 0.8399 -0.4792 -0.2548
vn -0.8735 -0.4792 -0.0860
vn 0.7741 -0.4792 -0.4138
vn -0.8735 -0.4792 0.0860
vn 0.6785 -0.4792 -0.5568
vn -0.8399 -0.4792 0.2548
vn 0.5568 -0.4792 -0.6785
vn -0.7741 -0.4792 0.4138
vn 0.0000 -1.0000 -0.0000
usemtl textures/dev/ground2
s off
f 3/1/1 2/2/1 35/3/1 36/4/1
f 2/2/1 3/1/1 33/5/1
f 3/1/1 4/6/1 33/5/1
f 4/6/1 5/7/1 33/5/1
f 5/7/1 6/8/1 33/5/1
f 6/8/1 7/9/1 33/5/1
f 7/9/1 8/10/1 33/5/1
f 8/10/1 9/11/1 33/5/1
f 9/11/1 10/12/1 33/5/1
f 10/12/1 11/13/1 33/5/1
f 11/13/1 12/14/1 33/5/1
f 12/14/1 13/15/1 33/5/1
f 13/15/1 14/16/1 33/5/1
f 14/16/1 15/17/1 33/5/1
f 15/17/1 16/18/1 33/5/1
f 16/18/1 17/19/1 33/5/1
f 17/19/1 18/20/1 33/5/1
f 18/20/1 19/21/1 33/5/1
f 19/21/1 20/22/1 33/5/1
f 20/22/1 21/23/1 33/5/1
f 21/23/1 22/24/1 33/5/1
f 22/24/1 23/25/1 33/5/1
f 23/25/1 24/26/1 33/5/1
f 24/26/1 25/27/1 33/5/1
f 25/27/1 26/28/1 33/5/1
f 26/28/1 27/29/1 33/5/1
f 27/29/1 28/30/1 33/5/1
f 28/30/1 29/31/1 33/5/1
f 29/31/1 30/32/1 33/5/1
f 30/32/1 31/33/1 33/5/1
f 31/33/1 32/34/1 33/5/1
f 32/34/1 1/35/1 33/5/1
f 1/35/1 2/2/1 33/5/1
f 30/32/1 29/31/1 62/36/1 63/37/1
f 17/19/1 16/18/1 49/38/1 50/39/1
f 4/6/1 3/1/1 36/4/1 37/40/1
f 31/33/1 30/32/1 63/37/1 64/41/1
f 18/20/1 17/19/1 50/39/1 51/42/1
f 5/7/1 4/6/1 37/40/1 38/43/1
f 32/34/1 31/33/1 64/41/1 65/44/1
f 19/21/1 18/20/1 51/42/1 52/45/1
f 6/8/1 5/7/1 38/43/1 39/46/1
f 1/35/1 32/34/1 65/44/1 34/47/1
f 20/22/1 19/21/1 52/45/1 53/48/1
f 7/9/1 6/8/1 39/46/1 40/49/1
f 21/23/1 20/22/1 53/48/1 54/50/1
f 8/10/1 7/9/1 40/49/1 41/51/1
f 22/24/1 21/23/1 54/50/1 55/52/1
f 9/11/1 8/10/1 41/51/1 42/53/1
f 23/25/1 22/24/1 55/52/1 56/54/1
f 10/12/1 9/11/1 42/53/1 43/55/1
f 24/26/1 23/25/1 56/54/1 57/56/1
f 11/13/1 10/12/1 43/55/1 44/57/1
f 25/27/1 24/26/1 57/56/1 58/58/1
f 12/14/1 11/13/1 44/57/1 45/59/1
f 26/28/1 25/27/1 58/58/1 59/60/1
f 13/15/1 12/14/1 45/59/1 46/61/1
f 27/29/1 26/28/1 59/60/1 60/62/1
f 14/16/1 13/15/1 46/61/1 47/63/1
f 28/30/1 27/29/1 60/62/1 61/64/1
f 15/17/1 14/16/1 47/63/1 48/65/1
f 2/2/1 1/35/1 34/47/1 35/3/1
f 29/31/1 28/30/1 61/64/1 62/36/1
f 16/18/1 15/17/1 48/65/1 49/38/1
usemtl skysky
f 48/66/2 47/67/2 79/68/2 80/69/2
f 35/70/3 34/71/3 66/72/3 67/73/3
f 62/74/4 61/75/4 93/76/4 94/77/4
f 49/78/5 48/66/5 80/69/5 81/79/5
f 36/80/6 35/70/6 67/73/6 68/81/6
f 63/82/7 62/74/7 94/77/7 95/83/7
f 50/84/8 49/78/8 81/79/8 82/85/8
f 37/86/9 36/80/9 68/81/9 69/87/9
f 64/88/10 63/82/10 95/83/10 96/89/10
f 51/90/11 50/84/11 82/85/11 83/91/11
f 38/92/12 37/86/12 69/87/12 70/93/12
f 65/94/13 64/88/13 96/89/13 97/95/13
f 52/96/14 51/90/14 83/91/14 84/97/14
f 39/98/15 38/92/15 70/93/15 71/99/15
f 34/71/16 65/94/16 97/95/16 66/72/16
f 53/100/17 52/96/17 84/97/17 85/101/17
f 40/102/18 39/98/18 71/99/18 72/103/18
f 54/104/19 53/100/19 85/101/19 86/105/19
f 41/106/20 40/102/20 72/103/20 73/107/20
f 55/108/21 54/104/21 86/105/21 87/109/21
f 42/110/22 41/106/22 73/107/22 74/111/22
f 56/112/23 55/108/23 87/109/23 88/113/23
f 43/114/24 42/110/24 74/111/24 75/115/24
f 57/116/25 56/112/25 88/113/25 89/117/25
f 44/118/26 43/114/26 75/115/26 76/119/26
f 58/120/27 57/116/27 89/117/27 90/121/27
f 45/122/28 44/118/28 76/119/28 77/123/28
f 59/124/29 58/120/29 90/121/29 91/125/29
f 46/126/30 45/122/30 77/123/30 78/127/30
f 60/128/31 59/124/31 91/125/31 92/129/31
f 47/67/32 46/126/32 78/127/32 79/68/32
f 61/75/33 60/128/33 92/129/33 93/76/33
f 67/73/34 66/72/34 97/95/34 96/89/34 95/83/34 94/77/34 93/76/34 92/129/34 91/125/34 90/121/34 89/117/34 88/113/34 87/109/34 86/105/34 85/101/34 84/97/34 83/91/34 82/85/34 81/79/34 80/69/34 79/68/34 78/127/34 77/123/34 76/119/34 75/115/34 74/111/34 73/107/34 72/103/34 71/99/34 70/93/34 69/87/34 68/81/34
