# Blender v2.78 (sub 0) OBJ File: 'terrain.blend'
# www.blender.org
mtllib Cube.mtl
o Cube
v -256.000000 0.000000 256.000000
v -192.000000 0.000000 256.000000
v -128.000000 0.000000 256.000000
v -64.000000 0.000000 256.000000
v 0.000000 0.000000 256.000000
v 64.000000 0.000000 256.000000
v 128.000000 0.000000 256.000000
v 192.000000 0.000000 256.000000
v 256.000000 0.000000 256.000000
v -256.000000 0.000000 192.000000
v -192.000000 0.000000 192.000000
v -128.000000 0.000000 192.000000
v -64.000000 0.000000 192.000000
v 0.000000 0.000000 192.000000
v 64.000000 0.000000 192.000000
v 128.000000 0.000000 192.000000
v 192.000000 0.000000 192.000000
v 256.000000 0.000000 192.000000
v -256.000000 0.000000 128.000000
v -192.000000 0.000000 128.000000
v -128.000000 0.000000 128.000000
v -64.000000 0.000000 128.000000
v 0.000000 0.000000 128.000000
v 64.000000 0.000000 128.000000
v 128.000000 0.000000 128.000000
v 192.000000 0.000000 128.000000
v 256.000000 0.000000 128.000000
v -256.000000 0.000000 64.000000
v -192.000000 0.000000 64.000000
v -128.000000 0.000000 64.000000
v -64.000000 0.000000 64.000000
v 0.000000 0.000000 64.000000
v 64.000000 0.000000 64.000000
v 128.000000 0.000000 64.000000
v 192.000000 0.000000 64.000000
v 256.000000 0.000000 64.000000
v -256.000000 0.000000 0.000000
v -192.000000 0.000000 0.000000
v -128.000000 0.000000 0.000000
v -64.000000 0.000000 0.000000
v 0.000000 0.000000 0.000000
v 64.000000 0.000000 0.000000
v 128.000000 0.000000 0.000000
v 192.000000 0.000000 0.000000
v 256.000000 0.000000 0.000000
v -256.000000 0.000000 -64.000000
v -192.000000 0.000000 -64.000000
v -128.000000 0.000000 -64.000000
v -64.000000 0.000000 -64.000000
v 0.000000 0.000000 -64.000000
v 64.000000 0.000000 -64.000000
v 128.000000 0.000000 -64.000000
v 192.000000 0.000000 -64.000000
v 256.000000 0.000000 -64.000000
v -256.000000 0.000000 -128.000000
v -192.000000 0.000000 -128.000000
v -128.000000 0.000000 -128.000000
v -64.000000 0.000000 -128.000000
v 0.000000 0.000000 -128.000000
v 64.000000 0.000000 -128.000000
v 128.000000 0.000000 -128.000000
v 192.000000 0.000000 -128.000000
v 256.000000 0.000000 -128.000000
v -256.000000 0.000000 -192.000000
v -192.000000 0.000000 -192.000000
v -128.000000 0.000000 -192.000000
v -64.000000 0.000000 -192.000000
v 0.000000 0.000000 -192.000000
v 64.000000 0.000000 -192.000000
v 128.000000 0.000000 -192.000000
v 192.000000 0.000000 -192.000000
v 256.000000 0.000000 -192.000000
v -256.000000 0.000000 -256.000000
v -192.000000 0.000000 -256.000000
v -128.000000 0.000000 -256.000000
v -64.000000 0.000000 -256.000000
v 0.000000 0.000000 -256.000000
v 64.000000 0.000000 -256.000000
v 128.000000 0.000000 -256.000000
v 192.000000 0.000000 -256.000000
v 256.000000 0.000000 -256.000000
vt 1.0000 0.0000
vt 1.0000 0.5000
vt 0.5000 0.5000
vt 0.5000 0.0000
vt 1.0000 1.0000
vt 0.5000 1.0000
vt 1.0000 1.5000
vt 0.5000 1.5000
vt 1.0000 2.0000
vt 0.5000 2.0000
vt 1.0000 2.5000
vt 0.5000 2.5000
vt 1.0000 3.0000
vt 0.5000 3.0000
vt 1.0000 3.5000
vt 0.5000 3.5000
vt 1.0000 4.0000
vt 0.5000 4.0000
vt 0.0000 0.5000
vt 0.0000 0.0000
vt 0.0000 1.0000
vt 0.0000 1.5000
vt 0.0000 2.0000
vt 0.0000 2.5000
vt 0.0000 3.0000
vt 0.0000 3.5000
vt 0.0000 4.0000
vt -0.5000 0.5000
vt -0.5000 0.0000
vt -0.5000 1.0000
vt -0.5000 1.5000
vt -0.5000 2.0000
vt -0.5000 2.5000
vt -0.5000 3.0000
vt -0.5000 3.5000
vt -0.5000 4.0000
vt -1.0000 0.5000
vt -1.0000 0.0000
vt -1.0000 1.0000
vt -1.0000 1.5000
vt -1.0000 2.0000
vt -1.0000 2.5000
vt -1.0000 3.0000
vt -1.0000 3.5000
vt -1.0000 4.0000
vt -1.5000 0.5000
vt -1.5000 0.0000
vt -1.5000 1.0000
vt -1.5000 1.5000
vt -1.5000 2.0000
vt -1.5000 2.5000
vt -1.5000 3.0000
vt -1.5000 3.5000
vt -1.5000 4.0000
vt -2.0000 0.5000
vt -2.0000 0.0000
vt -2.0000 1.0000
vt -2.0000 1.5000
vt -2.0000 2.0000
vt -2.0000 2.5000
vt -2.0000 3.0000
vt -2.0000 3.5000
vt -2.0000 4.0000
vt -2.5000 0.5000
vt -2.5000 0.0000
vt -2.5000 1.0000
vt -2.5000 1.5000
vt -2.5000 2.0000
vt -2.5000 2.5000
vt -2.5000 3.0000
vt -2.5000 3.5000
vt -2.5000 4.0000
vt -3.0000 0.5000
vt -3.0000 0.0000
vt -3.0000 1.0000
vt -3.0000 1.5000
vt -3.0000 2.0000
vt -3.0000 2.5000
vt -3.0000 3.0000
vt -3.0000 3.5000
vt -3.0000 4.0000
vn 0.0000 1.0000 0.0000
usemtl textures/dev/ground
s off
f 1/1/1 2/2/1 11/3/1 10/4/1
f 2/2/1 3/5/1 12/6/1 11/3/1
f 3/5/1 4/7/1 13/8/1 12/6/1
f 4/7/1 5/9/1 14/10/1 13/8/1
f 5/9/1 6/11/1 15/12/1 14/10/1
f 6/11/1 7/13/1 16/14/1 15/12/1
f 7/13/1 8/15/1 17/16/1 16/14/1
f 8/15/1 9/17/1 18/18/1 17/16/1
f 10/4/1 11/3/1 20/19/1 19/20/1
f 11/3/1 12/6/1 21/21/1 20/19/1
f 12/6/1 13/8/1 22/22/1 21/21/1
f 13/8/1 14/10/1 23/23/1 22/22/1
f 14/10/1 15/12/1 24/24/1 23/23/1
f 15/12/1 16/14/1 25/25/1 24/24/1
f 16/14/1 17/16/1 26/26/1 25/25/1
f 17/16/1 18/18/1 27/27/1 26/26/1
f 19/20/1 20/19/1 29/28/1 28/29/1
f 20/19/1 21/21/1 30/30/1 29/28/1
f 21/21/1 22/22/1 31/31/1 30/30/1
f 22/22/1 23/23/1 32/32/1 31/31/1
f 23/23/1 24/24/1 33/33/1 32/32/1
f 24/24/1 25/25/1 34/34/1 33/33/1
f 25/25/1 26/26/1 35/35/1 34/34/1
f 26/26/1 27/27/1 36/36/1 35/35/1
f 28/29/1 29/28/1 38/37/1 37/38/1
f 29/28/1 30/30/1 39/39/1 38/37/1
f 30/30/1 31/31/1 40/40/1 39/39/1
f 31/31/1 32/32/1 41/41/1 40/40/1
f 32/32/1 33/33/1 42/42/1 41/41/1
f 33/33/1 34/34/1 43/43/1 42/42/1
f 34/34/1 35/35/1 44/44/1 43/43/1
f 35/35/1 36/36/1 45/45/1 44/44/1
f 37/38/1 38/37/1 47/46/1 46/47/1
f 38/37/1 39/39/1 48/48/1 47/46/1
f 39/39/1 40/40/1 49/49/1 48/48/1
f 40/40/1 41/41/1 50/50/1 49/49/1
f 41/41/1 42/42/1 51/51/1 50/50/1
f 42/42/1 43/43/1 52/52/1 51/51/1
f 43/43/1 44/44/1 53/53/1 52/52/1
f 44/44/1 45/45/1 54/54/1 53/53/1
f 46/47/1 47/46/1 56/55/1 55/56/1
f 47/46/1 48/48/1 57/57/1 56/55/1
f 48/48/1 49/49/1 58/58/1 57/57/1
f 49/49/1 50/50/1 59/59/1 58/58/1
f 50/50/1 51/51/1 60/60/1 59/59/1
f 51/51/1 52/52/1 61/61/1 60/60/1
f 52/52/1 53/53/1 62/62/1 61/61/1
f 53/53/1 54/54/1 63/63/1 62/62/1
f 55/56/1 56/55/1 65/64/1 64/65/1
f 56/55/1 57/57/1 66/66/1 65/64/1
f 57/57/1 58/58/1 67/67/1 66/66/1
f 58/58/1 59/59/1 68/68/1 67/67/1
f 59/59/1 60/60/1 69/69/1 68/68/1
f 60/60/1 61/61/1 70/70/1 69/69/1
f 61/61/1 62/62/1 71/71/1 70/70/1
f 62/62/1 63/63/1 72/72/1 71/71/1
f 64/65/1 65/64/1 74/73/1 73/74/1
f 65/64/1 66/66/1 75/75/1 74/73/1
f 66/66/1 67/67/1 76/76/1 75/75/1
f 67/67/1 68/68/1 77/77/1 76/76/1
f 68/68/1 69/69/1 78/78/1 77/77/1
f 69/69/1 70/70/1 79/79/1 78/78/1
f 70/70/1 71/71/1 80/80/1 79/79/1
f 71/71/1 72/72/1 81/81/1 80/80/1
