# Blender v2.78 (sub 0) OBJ File: 'terrain.blend'
# www.blender.org
mtllib rock1.005.mtl
o rock1.005_Cube.027
v -1054.827759 772.162292 -1953.209106
v -1130.755615 1037.994263 -1837.677002
v -1272.213501 1041.844849 -2161.137939
v -1494.636597 840.148621 -2103.704102
v -1350.776245 1245.215698 -1808.327637
v -1457.627930 1142.856934 -2111.999268
v -1318.420166 1313.003296 -2127.096924
v -1403.533325 768.999023 -1836.862427
v -1214.253784 965.645264 -1777.986206
v -1277.691528 1133.164795 -1784.925171
v -1377.287842 1159.094971 -2153.433350
v -1246.638428 1150.721313 -2172.041748
v -1502.462158 1077.923340 -1992.056030
v -1484.074341 810.681946 -1880.568726
v -1540.786865 921.750916 -1990.242554
v -1176.104736 751.590271 -2128.648438
v -1482.833374 740.780884 -2095.022705
v -1202.662964 1283.060059 -1836.879150
v -1081.081787 796.856567 -1799.767090
v -1491.450073 1196.990479 -2031.848022
v -1403.528564 1270.855469 -2069.349121
v -1136.643677 812.123535 -2129.276855
v -1188.418213 1164.320190 -1818.859985
v -1072.360229 901.713196 -1803.074707
v -1436.773560 950.545349 -1834.484619
v -1408.429199 1266.647705 -1858.497803
v -1323.809204 806.559631 -2167.471191
v -1162.828369 1304.734619 -1904.801514
v -1286.416138 767.070679 -1906.906616
v -1196.646362 751.958252 -1813.034912
v -1458.647705 1272.986450 -1982.610962
v -1083.432617 751.339478 -2081.718018
v -1146.383057 1268.996094 -1872.356201
v -1054.997803 1154.377319 -2082.515137
v -1082.850342 843.708008 -1785.243896
v -1304.130493 1325.102661 -1914.511963
v -990.580811 960.728638 -1958.951538
v -1084.958008 1190.723999 -1957.263794
v -1233.797729 1092.263428 -2147.538330
v -1510.441284 987.367310 -1910.202271
v -1518.939209 945.568909 -2049.229004
v -1520.464233 841.454407 -1935.571167
v -1381.569580 887.962646 -2151.345215
v -1410.445068 999.634644 -2104.054932
v -1050.081177 918.078003 -2058.863525
v -1235.386841 878.623596 -2136.860596
v -1169.935913 969.353516 -2095.122559
v -1037.659912 1098.973633 -2013.719360
v -1080.616943 1224.635132 -2031.259155
v -1018.584534 821.686401 -2047.224854
v -991.992188 988.821350 -1996.105469
v -1256.096924 1020.401367 -1761.955933
v -1128.561768 900.073730 -1774.331787
v -1255.489258 736.294128 -1971.445190
v -1163.479614 729.507202 -2085.014893
v -1452.336426 741.223022 -1955.919067
v -1413.203613 817.825195 -1812.918945
v -1310.020874 1324.769287 -2092.183838
v -1166.216797 1276.190796 -2092.529541
v -1143.034302 770.572632 -1781.635010
v -1404.066895 1162.207397 -1812.578125
v -1431.602417 1072.632935 -1809.419067
v -1120.000488 1136.671021 -1895.444336
v -1136.195068 1149.517334 -2136.031006
v -1486.167480 1251.253784 -1955.568726
v -1494.472412 1149.575439 -1934.799194
v -1195.965820 1246.518921 -2144.249268
v -1144.105835 821.392456 -1761.231201
v -1458.999268 746.403687 -2125.284180
v -1317.533691 742.417847 -2151.407715
v -1349.495239 940.508606 -1797.684570
v -1047.616455 830.961914 -1827.013184
v -1091.415161 774.440308 -2119.612549
v -1046.705200 1044.932739 -2044.457153
v -1460.469116 800.405518 -2140.446045
v -1425.286133 864.315979 -1818.427490
v -1499.274414 1085.837769 -1878.904785
v -1476.034180 1104.259888 -1831.016968
v -1480.257324 1026.437134 -2060.792236
v -1364.699463 748.267395 -1855.457153
v -1318.011963 1185.595459 -1778.785889
vt 1.1897 0.5407
vt 1.3650 0.2359
vt 2.0204 0.1769
vt 1.2318 0.2174
vt 1.2014 -0.2801
vt 1.7157 -0.3210
vt 0.5604 1.1631
vt 0.8695 0.6985
vt 1.3056 0.8367
vt 0.4078 0.2712
vt 0.5922 -0.1301
vt 0.1460 -0.2801
vt 1.2691 0.7993
vt 0.9226 0.5808
vt 1.3403 0.6099
vt 0.6186 1.0183
vt 0.1085 0.5866
vt -0.4733 0.8576
vt 1.2022 0.3247
vt 1.3834 0.1045
vt 1.6076 0.5504
vt 0.8042 0.6256
vt 0.3751 0.4331
vt 1.0984 -0.1241
vt 0.1648 0.0762
vt 0.8795 -0.2386
vt 0.8389 0.9531
vt 1.5016 -0.1654
vt 1.1857 0.0196
vt 0.4733 0.5829
vt 1.3067 0.4488
vt 0.8389 -0.4776
vt -0.3603 0.4289
vt 0.8596 0.9452
vt 1.3091 0.7241
vt 0.7372 0.5309
vt 0.9103 0.8596
vt 1.0725 1.0189
vt 0.8792 1.3091
vt 0.2875 1.0079
vt 1.3684 0.2875
vt 1.7814 0.5035
vt 1.0746 0.2389
vt 0.8911 0.5355
vt 0.9667 0.2974
vt 0.7404 0.0919
vt 0.1112 0.5306
vt 0.5897 0.5504
vt 0.6385 0.1045
vt 0.7081 0.4640
vt -0.1989 0.2174
vt 0.8353 0.0045
vt 0.5907 0.8456
vt 0.6332 0.1020
vt 0.4360 -0.0585
vt 0.1954 0.2696
vt 1.7081 -0.0081
vt 1.9830 0.6176
vt 0.4681 0.4396
vt 0.5176 0.2339
vt 1.3850 -0.8703
vt 1.8694 -0.1251
vt 1.3973 0.0993
vt 1.9483 0.2339
vt 1.8988 0.4396
vt 1.3973 0.4109
vt 0.9300 0.2506
vt 1.1097 -0.5691
vt 0.7082 -0.6890
vt 0.2850 -0.3210
vt 1.0819 -0.2186
vt 0.1562 0.9450
vt 0.4255 0.7153
vt 0.4873 0.9517
vt 0.0646 0.6244
vt 0.8795 1.1921
vt 0.1020 0.6634
vt 1.3997 0.6256
vt -0.0391 0.9517
vt -0.1441 0.7153
vt 0.4221 0.1722
vt 0.8042 -0.0311
vt 0.5907 -0.5851
vt 0.9574 0.8576
vt 1.5393 0.5866
vt 0.4363 0.5640
vt 0.9574 -0.5731
vt 0.4363 -0.8668
vt 0.9451 0.0291
vt 1.3565 -0.0801
vt 0.8604 -0.7299
vt 1.0785 0.5035
vt 0.8604 0.7008
vt 1.3565 1.3506
vt 1.0617 0.5389
vt 0.0960 0.8956
vt -0.3690 0.5389
vt 1.5267 0.8956
vt 1.8988 1.1968
vt 1.5519 0.5697
vt 0.1212 0.5697
vt 0.5922 1.3007
vt 0.7417 0.7061
vt 0.4176 0.5808
vt 1.0639 1.0333
vt 1.6813 0.2959
vt 0.1256 0.3462
vt 0.7172 -0.3004
vt 0.4681 1.1968
vt 1.5519 2.0004
vt 2.1711 1.5226
vt 1.3431 1.2273
vt 2.0493 1.0183
vt 1.3811 0.1916
vt -0.0335 0.1600
vt -0.3211 0.8616
vt 1.9483 1.6646
vt 0.4705 0.6776
vt 1.1502 1.0748
vt 0.2774 0.9206
vt -0.0366 0.5823
vt 1.0984 1.3066
vt 1.2022 1.7554
vt 0.8695 2.1293
vt 0.6567 0.5728
vt 1.8528 0.1722
vt 2.0214 -0.5851
vt 1.8058 0.3955
vt 1.5419 1.9614
vt 2.0692 1.5352
vt 1.3941 0.5823
vt 0.9700 0.3462
vt 1.7157 1.1097
vt 1.2014 1.1506
vt 0.7404 1.5226
vt 0.1432 0.0762
vt -0.5954 0.0045
vt -0.3488 -0.2186
vt 0.2850 1.1097
vt 0.8353 1.4353
vt -0.1989 1.6481
vt 0.0709 0.4173
vt 0.4360 0.5244
vt 1.2342 0.5909
vt 1.3850 0.5604
vt 0.5523 0.6176
vt 1.1502 0.1601
vt 1.1897 0.9259
vt 1.5419 0.5306
vt 0.5053 0.4783
vt 0.3692 1.0175
vt 0.0540 0.5909
vt 0.0709 -0.1654
vt 0.4733 0.3026
vt -0.3603 0.3189
vt 0.2774 -0.0081
vt 0.0511 0.3692
vt -0.0458 0.5604
vt -0.2805 0.1601
vt 0.0511 1.0175
vt -0.2805 1.0748
vt -0.1966 0.5909
vt 1.0725 -0.4118
vt 1.0704 0.4289
vt 2.2696 -0.4776
vt 0.9226 0.4176
vt 0.7082 0.7417
vt 1.1097 0.8616
vt 1.3973 0.1600
vt 0.3018 0.7008
vt 0.4289 0.3189
vt 0.2506 0.2959
vt 0.5183 0.5389
vt 1.3067 0.3400
vt -0.1240 0.3400
vt -0.0905 0.6099
vt 1.4953 0.6244
vt 1.0819 1.2122
vt 0.1432 1.5069
vt -0.3488 1.2122
vt 1.0746 1.6696
vt 0.1648 1.5069
vt 0.8456 0.4238
vt 0.9609 -0.1241
vt 0.6186 -0.4124
vt 0.3955 0.4331
vt -0.0311 0.6256
vt 0.1722 0.3390
vt 0.9609 1.3066
vt 0.5897 0.1769
vt -0.0657 0.2359
vt 0.4387 -0.1251
vt 0.1769 0.5504
vt -0.1251 0.8367
vt -0.2285 0.3247
vt 1.3431 -0.2035
vt 1.4115 1.1304
vt 1.7325 0.7008
vt 1.3684 1.0079
vt 1.7081 0.9206
vt 0.0514 0.7993
vt 0.1460 1.1506
vt 1.4796 1.4599
vt -0.5918 0.9531
vt -0.0496 1.6224
vt 1.4796 0.0291
vt 0.9667 1.7281
vt 0.9300 1.6813
vt 2.2696 0.9531
vt 1.6261 0.2696
vt 2.9323 0.4173
vt 2.9260 0.6244
vt 1.0785 0.3506
vt 0.8792 -0.1217
vt 0.5523 -0.8131
vt 1.3722 0.5244
vt 1.5327 0.6634
vt 1.2866 0.7153
vt -0.2410 0.9259
vt 1.3973 1.5300
vn 0.3267 0.4400 -0.8365
vn 0.4951 0.7667 -0.4086
vn 0.8327 0.1802 -0.5235
vn -0.3814 -0.0314 0.9239
vn -0.5898 -0.0479 0.8061
vn -0.2614 -0.0551 0.9637
vn 0.4957 0.8478 0.1883
vn 0.8663 0.3304 0.3746
vn 0.8117 0.5772 -0.0894
vn -0.9465 0.0695 0.3150
vn -0.9037 0.0348 0.4266
vn -0.5333 0.0179 0.8457
vn -0.7557 -0.3788 0.5342
vn -0.4222 -0.2299 0.8769
vn 0.5289 0.1483 -0.8356
vn 0.2642 0.1254 -0.9562
vn 0.3364 0.0932 -0.9371
vn 0.9641 0.2596 -0.0560
vn 0.6836 0.0050 -0.7299
vn 0.8970 -0.2614 -0.3564
vn 0.4864 -0.3290 -0.8094
vn 0.9438 0.1898 -0.2706
vn 0.6075 0.2916 0.7389
vn 0.9648 0.0866 0.2481
vn 0.0316 -0.9952 0.0919
vn 0.1877 -0.7384 0.6477
vn 0.0500 -0.9446 0.3242
vn 0.0137 -0.7464 -0.6654
vn 0.1147 -0.6664 -0.7367
vn -0.3731 -0.6789 -0.6324
vn -0.8427 0.5101 0.1717
vn -0.8966 0.2852 -0.3386
vn -0.9614 0.1979 0.1909
vn -0.5832 0.8022 -0.1274
vn -0.5190 0.6628 0.5397
vn -0.7015 0.0891 -0.7071
vn -0.9860 0.1074 -0.1277
vn 0.1127 -0.0020 -0.9936
vn 0.4180 -0.2160 -0.8824
vn 0.0733 -0.0592 -0.9955
vn 0.4451 -0.0378 -0.8947
vn 0.1097 0.1171 0.9870
vn 0.0938 -0.0058 0.9956
vn 0.6204 -0.7745 0.1229
vn 0.8755 -0.2405 0.4191
vn 0.6047 -0.5689 0.5574
vn -0.0841 -0.9397 0.3314
vn -0.2452 0.5458 0.8012
vn -0.1079 0.9639 0.2433
vn -0.1978 0.7273 -0.6572
vn -0.0743 0.9764 -0.2025
vn -0.6160 0.6269 -0.4769
vn -0.3933 -0.6652 0.6346
vn -0.6273 -0.7279 -0.2766
vn -0.4434 -0.8784 0.1784
vn -0.9190 -0.2767 0.2809
vn 0.1491 0.0763 0.9859
vn 0.2687 0.2442 0.9317
vn 0.5662 -0.0406 0.8232
vn 0.6450 0.2692 0.7151
vn 0.1124 -0.1686 0.9792
vn 0.5192 -0.8159 -0.2543
vn 0.0045 -0.0823 -0.9966
vn -0.7810 0.0987 -0.6167
vn -0.4563 0.0598 -0.8878
vn -0.7940 0.0550 -0.6053
vn -0.5151 -0.0607 -0.8549
vn -0.3028 0.1589 -0.9397
vn -0.3401 0.0764 -0.9373
vn -0.9982 0.0340 -0.0500
vn -0.7341 0.1258 0.6673
vn -0.8539 0.1529 -0.4975
vn 0.4411 -0.0202 -0.8972
vn -0.0049 -0.9719 -0.2353
vn -0.0405 0.1623 0.9859
vn 0.2817 0.6152 0.7363
vn -0.4479 0.2390 0.8615
vn 0.1242 -0.9562 0.2649
vn 0.5263 0.1640 0.8343
vn 0.7486 0.2124 0.6281
vn 0.7433 0.4074 0.5306
usemtl None
s 1
f 67/1/1 59/2/2 34/3/3
f 62/4/4 25/5/5 71/6/6
f 28/7/7 38/8/8 49/9/9
f 77/10/10 40/11/11 25/12/5
f 76/13/12 14/14/13 57/15/14
f 45/16/15 22/17/16 46/18/17
f 49/9/9 38/8/8 48/19/18
f 74/20/19 34/21/3 48/19/18
f 45/16/15 50/22/20 73/23/21
f 74/20/19 48/19/18 51/24/22
f 38/8/8 2/25/23 37/26/24
f 54/27/25 60/28/26 30/29/27
f 70/30/28 16/31/29 54/32/25
f 70/30/28 54/32/25 69/33/30
f 65/34/31 20/35/32 66/36/33
f 65/37/31 31/38/34 20/39/32
f 26/40/35 65/34/31 66/36/33
f 26/41/35 31/38/34 65/37/31
f 20/35/32 6/42/36 13/43/37
f 12/44/38 39/45/39 3/46/40
f 64/47/41 34/48/3 74/49/19
f 10/50/42 62/51/4 52/52/43
f 1/53/44 72/54/45 19/55/46
f 30/29/27 60/28/26 80/56/47
f 26/41/35 5/57/48 36/58/49
f 7/59/50 58/60/51 59/2/2
f 59/2/2 28/61/7 49/62/9
f 21/63/52 58/64/51 7/65/50
f 8/66/53 57/15/14 14/14/13
f 17/67/54 56/68/55 42/69/56
f 52/52/43 71/70/6 9/71/57
f 53/72/58 35/73/59 24/74/60
f 53/72/58 68/75/61 35/73/59
f 37/76/24 72/77/45 50/78/20
f 72/77/45 24/79/60 35/80/59
f 45/16/15 73/23/21 22/17/16
f 32/81/62 50/82/20 1/83/44
f 46/84/17 22/85/16 27/86/63
f 3/46/40 46/87/17 27/88/63
f 79/89/64 44/90/65 4/91/66
f 6/92/36 44/90/65 79/89/64
f 4/93/66 44/94/65 75/95/67
f 43/96/68 27/86/63 75/97/67
f 44/94/65 43/98/68 75/95/67
f 6/92/36 7/99/50 11/100/69
f 11/101/69 12/44/38 3/46/40
f 40/102/11 42/103/56 14/104/13
f 42/103/56 15/105/70 17/106/54
f 78/107/71 26/40/35 66/36/33
f 79/89/64 4/91/66 41/108/72
f 11/101/69 7/109/50 12/44/38
f 44/94/65 11/110/69 3/111/40
f 47/112/73 45/113/15 46/84/17
f 16/31/29 55/114/74 54/32/25
f 80/56/47 8/115/53 56/116/55
f 31/38/34 36/58/49 58/117/51
f 81/118/75 10/50/42 18/119/76
f 5/120/48 61/121/77 81/118/75
f 37/76/24 51/122/22 48/123/18 38/124/8
f 29/125/78 30/29/27 80/56/47
f 55/114/74 32/126/62 1/127/44
f 55/114/74 16/31/29 73/128/21 32/126/62
f 47/112/73 64/129/41 74/130/19
f 78/107/71 66/36/33 77/10/10
f 62/4/4 61/131/77 78/132/71
f 76/13/12 71/133/6 25/134/5
f 62/4/4 78/132/71 25/5/5
f 43/96/68 3/135/40 27/86/63
f 6/92/36 11/100/69 44/90/65
f 51/122/22 37/76/24 50/78/20
f 37/76/24 24/79/60 72/77/45
f 2/136/23 52/137/43 9/138/57
f 71/139/6 52/140/43 62/141/4
f 68/75/61 60/142/26 19/143/46 35/73/59
f 80/56/47 60/28/26 8/115/53
f 18/119/76 10/50/42 23/144/79
f 28/145/7 36/146/49 18/147/76
f 10/50/42 81/118/75 62/51/4
f 66/36/33 20/35/32 13/43/37
f 77/10/10 66/36/33 13/43/37
f 12/44/38 7/109/50 67/148/1
f 39/45/39 12/44/38 64/149/41
f 12/44/38 67/148/1 64/149/41
f 63/150/80 33/151/81 23/152/79
f 38/8/8 33/151/81 63/150/80
f 38/8/8 28/7/7 33/151/81
f 38/8/8 63/150/80 2/25/23
f 63/150/80 23/152/79 2/25/23
f 81/118/75 61/121/77 62/51/4
f 1/53/44 19/55/46 60/153/26
f 70/154/28 69/155/30 75/97/67 27/86/63
f 36/146/49 5/156/48 18/147/76
f 33/157/81 28/158/7 18/159/76
f 33/160/81 18/161/76 23/162/79
f 21/63/52 31/163/34 58/64/51
f 69/164/30 54/165/25 17/67/54
f 14/166/13 42/167/56 56/168/55 8/169/53
f 4/170/66 69/171/30 17/172/54
f 75/173/67 69/171/30 4/170/66
f 16/174/29 70/154/28 27/86/63 22/85/16
f 22/17/16 73/23/21 16/175/29
f 71/139/6 57/176/14 68/177/61 9/178/57
f 29/125/78 54/27/25 30/29/27
f 53/72/58 24/74/60 2/179/23 9/180/57
f 15/105/70 42/103/56 40/102/11 13/181/37
f 53/72/58 9/180/57 68/75/61
f 2/136/23 23/162/79 52/137/43
f 52/52/43 23/144/79 10/50/42
f 37/76/24 2/182/23 24/79/60
f 1/183/44 50/78/20 72/77/45
f 74/49/19 51/184/22 45/185/15
f 73/186/21 50/187/20 32/188/62
f 45/16/15 51/189/22 50/22/20
f 34/190/3 59/191/2 49/192/9
f 34/193/3 49/194/9 48/195/18
f 39/45/39 47/196/73 46/87/17
f 3/46/40 39/45/39 46/87/17
f 41/197/72 4/198/66 17/106/54 15/105/70
f 77/10/10 13/43/37 40/11/11
f 26/199/35 78/132/71 61/131/77 5/200/48
f 57/15/14 71/133/6 76/13/12
f 40/102/11 14/104/13 76/201/12 25/202/5
f 41/197/72 15/105/70 13/181/37 79/203/64
f 78/107/71 77/10/10 25/12/5
f 1/53/44 60/153/26 54/204/25 55/205/74
f 13/43/37 6/42/36 79/206/64
f 44/94/65 3/111/40 43/98/68
f 47/112/73 74/130/19 45/113/15
f 47/112/73 39/207/39 64/129/41
f 56/168/55 17/208/54 54/209/25 80/210/47
f 57/15/14 8/66/53 60/211/26 68/212/61
f 54/27/25 29/125/78 80/56/47
f 6/213/36 20/214/32 21/63/52 7/65/50
f 31/38/34 26/41/35 36/58/49
f 58/60/51 28/61/7 59/2/2
f 58/60/51 36/215/49 28/61/7
f 5/120/48 81/118/75 18/119/76
f 19/216/46 72/217/45 35/218/59
f 64/47/41 67/219/1 34/48/3
f 7/59/50 59/2/2 67/1/1
f 20/39/32 31/38/34 21/220/52
