# Blender v2.78 (sub 0) OBJ File: 'terrain.blend'
# www.blender.org
mtllib rock1.002.mtl
o rock1.002_Cube.024
v -1337.305298 1086.906494 -764.247253
v -1242.105713 1092.695190 -845.085327
v -1202.165527 1017.282043 -727.008972
v -1346.162842 1088.283813 -812.164246
v -1344.014771 969.854553 -834.684448
v -1309.226074 1053.431396 -722.491516
v -1345.818481 1078.358765 -758.744751
v -1259.455566 955.547791 -808.830933
v -1304.823975 1081.688354 -843.845886
v -1274.255371 1010.420837 -854.518799
v -1349.670166 1042.083374 -789.045837
v -1352.947388 1037.361206 -755.591919
v -1362.260986 983.106750 -827.550537
v -1262.573730 961.936035 -741.791870
v -1239.933716 1076.007202 -731.085632
v -1292.380127 984.886536 -836.538086
v -1186.829590 1020.807434 -776.317688
v -1328.652100 1032.237183 -731.653381
v -1334.463867 1074.738037 -833.336426
v -1271.263672 952.681152 -755.452515
v -1375.938354 995.237183 -799.186890
v -1374.643921 975.647095 -797.356750
v -1319.217896 987.359863 -732.542480
v -1205.805908 980.439087 -801.091187
v -1208.240723 1087.658813 -802.086914
v -1196.599854 974.638367 -774.562317
v -1214.460571 990.299622 -724.074707
v -1269.341675 1019.873962 -710.809509
v -1250.808838 1004.914368 -721.257812
v -1316.364014 965.263550 -753.580444
v -1228.279785 1107.932861 -778.966248
v -1241.124512 1110.473877 -829.140503
v -1216.668457 1085.664795 -763.161621
v -1355.523438 1028.767090 -820.355164
v -1187.189087 1027.133057 -748.551636
v -1263.054321 1111.108032 -745.373169
v -1274.117432 1082.051270 -719.488892
v -1216.397217 1077.289307 -841.440063
v -1344.296265 956.899170 -810.044556
v -1301.274414 980.188232 -730.048218
v -1187.014648 997.407593 -746.092529
v -1203.345825 974.975220 -744.107056
v -1217.572144 1019.242981 -818.015137
v -1344.148193 1026.317139 -833.356689
v -1254.906128 1044.527222 -848.495056
vt 0.7093 0.3262
vt 0.9092 0.3731
vt 0.6440 -0.0004
vt 0.6440 0.7212
vt 0.9931 0.4418
vt 0.6449 0.3404
vt 0.6252 0.3348
vt 0.4269 -0.0438
vt 0.8800 -0.0613
vt 0.0755 0.1157
vt -0.2947 0.0262
vt -0.1697 0.0967
vt 0.2116 0.1560
vt 0.0906 0.1728
vt 0.1098 0.3147
vt 0.7038 0.4859
vt 0.4693 0.2593
vt 0.7821 0.3793
vt 0.3866 0.4083
vt 0.7098 0.4175
vt 0.5538 0.1060
vt 0.7650 0.0162
vt 0.6222 -0.2100
vt 0.3282 0.0741
vt 0.6418 0.4133
vt 0.3793 0.3999
vt 0.2808 0.0052
vt 0.4269 0.6778
vt 0.3947 1.0971
vt 0.1579 0.9041
vt 0.4140 0.3273
vt 0.8720 0.2508
vt 0.4726 0.2352
vt 0.4859 0.5501
vt 0.7093 0.1310
vt 0.6304 -0.0118
vt 0.9092 0.2018
vt -0.0786 0.6955
vt 0.6449 0.1401
vt 0.6430 -0.0261
vt 0.4383 -0.1117
vt 0.0755 0.4783
vt -0.1697 0.5769
vt -0.2490 0.2870
vt 0.4680 0.6841
vt 0.2808 0.7267
vt 0.2642 0.5263
vt 0.0276 0.6735
vt -0.0798 1.1349
vt -0.2536 0.6841
vt 0.2716 0.4418
vt 0.3938 0.6140
vt 0.4936 0.2440
vt 0.4383 0.6099
vt 0.5219 0.8135
vt 0.6449 0.8616
vt -0.2832 0.6099
vt 0.3495 0.3506
vt 0.1728 0.4585
vt 0.3282 0.7957
vt 0.6099 0.3795
vt 0.0434 0.0162
vt 0.1311 -0.0004
vt 0.0919 -0.2918
vt 0.7761 0.6735
vt 0.8554 0.4118
vt 0.4562 0.3727
vt 0.6351 0.4118
vt 0.7492 0.6735
vt 0.2606 0.5263
vt 0.1584 0.6603
vt 0.5519 0.5769
vt 0.2116 0.4101
vt 0.1959 0.4562
vt -0.3076 0.3273
vt -0.2280 0.6873
vt 0.4693 0.5715
vt 0.3947 0.3755
vt 0.0906 0.4585
vt 0.0269 0.7611
vt 0.0269 0.0396
vt 0.1579 0.1825
vt -0.1369 0.0741
vt 0.5219 0.4298
vt 0.0906 -0.2631
vt 0.2116 -0.3114
vt 0.4726 0.2870
vt 0.1630 0.3348
vt 0.1355 -0.0613
vt -0.0314 0.3866
vt -0.0888 0.3495
vt 0.6106 0.4473
vt 0.7840 0.3434
vt 0.5243 0.1225
vt 0.1876 0.3731
vt 0.7761 -0.0481
vt 0.6418 1.1349
vt 0.0919 0.4298
vt -0.1117 0.3795
vt -0.0993 0.5116
vt 0.0434 0.7377
vt 0.9175 0.4562
vt 0.3947 0.0848
vt 0.0606 0.3793
vt -0.2522 0.2593
vt -0.0963 0.1630
vt 0.0624 0.3434
vt -0.1110 0.4473
vt -0.1044 0.5672
vt 0.1856 0.3434
vt 0.1027 0.5672
vt -0.0798 0.4133
vt 0.6172 0.1027
vt 0.7038 -0.2357
vt 0.8390 -0.0798
vt 0.6172 0.5672
vt 0.1876 0.2018
vt -0.0912 -0.0118
vt -0.0314 -0.3350
vt 0.4693 -0.4623
vt 0.6304 0.7098
vt 0.6902 0.3866
vt 1.3388 0.8242
vt 0.6430 0.6955
vt 0.8314 0.3147
vt 1.2152 -0.0343
vt 1.2152 0.2440
vt 0.1338 0.6351
vt -0.2947 0.6778
vt 0.2508 0.3750
vt 0.1504 0.3750
vt 0.1856 1.0650
vt 1.1154 0.6140
vt 0.9092 1.0946
vt 0.1876 1.0946
vt 0.5243 0.8440
vt 0.1310 0.3262
vt -0.0118 0.4175
vt 0.1668 0.7611
vt -0.0888 0.3506
vt 0.6222 0.5116
vt 0.1355 0.6603
vt 0.4936 0.6873
vt 0.7970 0.1157
vn -0.3479 0.0700 -0.9349
vn -0.0427 0.0234 -0.9988
vn 0.2367 0.2180 0.9468
vn -0.2510 -0.7437 0.6196
vn -0.3576 -0.6678 0.6528
vn 0.5556 0.6540 0.5133
vn -0.9689 0.1656 0.1839
vn -0.8666 0.4966 -0.0492
vn -0.8707 0.4916 -0.0159
vn 0.8514 0.4810 0.2090
vn -0.1830 0.1221 0.9755
vn 0.2084 -0.8662 0.4542
vn 0.8021 0.5619 0.2024
vn -0.3830 0.6675 -0.6386
vn -0.2493 -0.9325 0.2615
vn -0.5959 -0.7080 -0.3791
vn -0.0938 -0.4082 0.9081
vn 0.9999 0.0068 0.0114
vn 0.8040 0.0286 -0.5939
vn 0.1020 -0.6201 -0.7778
vn -0.6350 -0.6480 -0.4205
vn -0.5404 -0.6157 0.5734
vn -0.7598 0.4624 -0.4571
vn -0.7292 -0.1887 0.6577
vn -0.7157 0.2105 -0.6659
vn 0.5523 -0.1869 -0.8124
vn 0.8569 -0.0914 -0.5074
vn 0.9650 -0.2102 -0.1568
vn 0.6444 -0.2138 0.7342
vn 0.0905 -0.4925 0.8656
vn 0.2848 -0.9585 0.0115
vn 0.3543 0.5432 0.7612
vn -0.3423 -0.0905 0.9352
vn -0.9835 0.1654 -0.0730
vn -0.6428 0.2812 0.7126
vn -0.3507 0.0212 -0.9363
vn -0.3226 -0.1317 0.9373
vn 0.0618 -0.4440 0.8939
vn 0.6337 0.4623 0.6202
vn -0.1846 -0.7552 0.6290
vn -0.3819 0.7383 0.5559
vn 0.1569 0.0282 -0.9872
vn -0.9826 0.1373 0.1253
vn -0.0336 0.0795 -0.9963
vn 0.4436 -0.3431 -0.8280
vn 0.9568 0.2861 -0.0528
vn -0.8756 0.1117 -0.4700
vn 0.2993 -0.9510 0.0768
vn -0.3737 0.6922 0.6174
vn 0.5513 0.5994 0.5803
vn 0.4460 0.5838 -0.6784
vn 0.7019 0.6394 -0.3140
vn 0.6321 0.7651 -0.1231
vn -0.1314 0.6659 -0.7344
vn -0.2558 0.8242 -0.5053
vn -0.2897 0.9535 -0.0831
vn -0.1963 0.9784 0.0644
vn -0.3959 -0.8596 0.3232
vn -0.0074 -0.8851 -0.4654
vn 0.1432 -0.5898 -0.7947
vn 0.4359 -0.8357 -0.3340
vn 0.2344 -0.0011 0.9721
vn 0.8023 -0.5678 0.1840
vn 0.6339 -0.4031 0.6601
vn 0.9796 -0.0920 -0.1788
vn 0.3596 -0.5379 -0.7625
vn -0.3448 -0.3644 -0.8651
vn -0.2853 0.0211 -0.9582
vn 0.0266 0.1592 -0.9869
vn -0.7731 0.1826 -0.6075
vn -0.7097 -0.1628 0.6854
vn -0.6336 0.1682 0.7552
vn -0.8790 -0.0136 0.4767
vn 0.5521 -0.1690 -0.8165
vn 0.8083 0.0532 0.5863
vn 0.3419 0.1556 0.9268
vn -0.0151 -0.9983 -0.0569
vn -0.1809 -0.7740 0.6068
vn 0.1117 0.9935 0.0217
vn -0.4437 0.4638 0.7668
vn 0.1860 -0.7279 0.6600
usemtl None
s off
f 19/1/1 9/2/1 44/3/1
f 44/4/2 16/5/2 5/6/2
f 15/7/3 28/8/3 3/9/3
f 27/10/4 28/11/4 29/12/4
f 40/13/5 23/14/5 30/15/5
f 31/16/6 36/17/6 33/18/6
f 1/19/7 4/20/7 11/21/7
f 11/21/8 34/22/8 21/23/8
f 12/24/9 11/21/9 21/23/9
f 25/25/10 33/26/10 35/27/10
f 28/28/11 37/29/11 6/30/11
f 20/31/12 42/32/12 14/33/12
f 31/34/13 33/26/13 25/25/13
f 19/35/14 4/36/14 9/37/14
f 20/31/15 30/15/15 39/38/15
f 5/39/16 39/40/16 22/41/16
f 27/42/17 29/43/17 14/44/17
f 17/45/18 35/46/18 41/47/18
f 43/48/19 25/49/19 17/50/19
f 16/51/20 10/52/20 8/53/20
f 22/54/21 13/55/21 5/56/21
f 23/14/22 22/57/22 30/15/22
f 7/58/23 1/19/23 11/21/23
f 23/59/24 12/60/24 22/61/24
f 34/62/25 44/63/25 13/64/25
f 10/52/26 43/65/26 24/66/26
f 17/45/27 26/67/27 24/68/27 43/69/27
f 26/67/28 17/45/28 41/47/28
f 41/70/29 3/71/29 27/42/29
f 29/72/30 28/28/30 40/73/30
f 26/74/31 20/75/31 8/76/31
f 36/77/32 37/78/32 15/7/32
f 23/79/33 6/30/33 18/80/33
f 12/24/34 7/58/34 11/21/34
f 18/81/35 6/82/35 12/83/35
f 13/84/36 44/4/36 5/6/36
f 6/82/37 23/85/37 40/86/37 28/8/37
f 14/87/38 29/72/38 40/73/38
f 15/88/39 3/89/39 35/27/39 33/26/39
f 20/31/40 14/33/40 30/15/40
f 36/17/41 1/90/41 7/91/41
f 2/92/42 38/93/42 45/94/42
f 11/21/43 4/20/43 34/22/43
f 9/95/44 2/92/44 45/94/44
f 45/94/45 38/93/45 43/96/45
f 17/45/46 25/97/46 35/46/46
f 13/98/47 22/99/47 21/100/47 34/101/47
f 20/31/48 26/102/48 42/32/48
f 36/17/49 7/91/49 37/103/49
f 33/104/50 36/105/50 15/106/50
f 38/107/51 2/108/51 32/109/51
f 38/110/52 32/111/52 25/112/52
f 32/113/53 31/114/53 25/115/53
f 2/92/54 9/95/54 32/116/54
f 9/117/55 4/118/55 32/113/55
f 32/113/56 1/119/56 36/120/56
f 4/121/57 1/122/57 32/123/57
f 39/124/58 30/125/58 22/54/58
f 5/39/59 8/126/59 39/40/59
f 5/6/60 16/5/60 8/127/60
f 24/128/61 26/74/61 8/76/61
f 3/71/62 28/129/62 27/42/62
f 26/67/63 41/47/63 42/130/63
f 42/131/64 41/70/64 27/42/64
f 43/48/65 38/132/65 25/49/65
f 8/53/66 10/52/66 24/66/66
f 44/4/67 10/133/67 16/5/67
f 44/4/68 9/134/68 10/133/68
f 10/52/69 9/135/69 45/136/69
f 19/137/70 44/63/70 34/62/70 4/138/70
f 23/59/71 18/139/71 12/60/71
f 6/82/72 7/140/72 12/83/72
f 22/61/73 12/60/73 21/141/73
f 10/52/74 45/136/74 43/65/74
f 41/47/75 35/46/75 3/142/75
f 15/7/76 37/78/76 28/8/76
f 8/143/77 20/31/77 39/38/77
f 30/15/78 14/33/78 40/13/78
f 32/113/79 36/120/79 31/114/79
f 37/78/80 7/140/80 6/82/80
f 14/33/81 42/32/81 27/144/81
