# Blender v2.78 (sub 0) OBJ File: 'terrain.blend'
# www.blender.org
mtllib rock1.003.mtl
o rock1.003_Cube.051
v -1188.459961 1002.703308 -1092.152832
v -1303.303467 1061.624268 -936.942017
v -1329.492432 904.777771 -1026.556274
v -1350.354736 1091.756592 -1113.292603
v -1211.704102 1103.112061 -1115.053223
v -1316.594238 1090.572144 -1119.525269
v -1199.980469 1088.968994 -1086.624878
v -1258.308838 1136.530884 -983.609619
v -1223.475342 996.905823 -1156.291382
v -1372.658691 1045.508789 -997.041748
v -1328.177490 1007.044067 -1162.350342
v -1250.626709 1120.113037 -1070.877686
v -1234.473877 936.368225 -1175.950684
v -1298.012207 1143.431274 -991.446289
v -1315.457031 928.176636 -1093.583374
v -1245.867920 923.259216 -985.970581
v -1349.802490 1002.686218 -928.594299
v -1302.327881 1038.295288 -1163.499146
v -1259.633301 961.460693 -1190.526001
v -1372.623779 994.076111 -1115.313965
v -1293.615234 1120.192627 -1113.770630
v -1176.037109 956.153259 -965.547363
v -1353.177490 1095.652100 -1016.117798
v -1176.301025 932.617798 -993.926941
v -1225.489014 1074.490479 -983.704773
v -1342.961914 954.445801 -1166.156616
v -1159.926758 1019.632751 -996.257385
v -1199.734863 1106.417725 -1011.799194
v -1361.985352 999.459961 -956.311035
v -1414.092529 970.505798 -1038.859009
v -1393.079102 970.040710 -970.139099
v -1338.684082 1061.448975 -1138.593140
v -1172.112793 954.670105 -1148.075684
v -1190.748291 985.846069 -952.413086
v -1242.920166 997.719666 -943.189758
v -1225.505859 915.958252 -1030.723267
v -1377.033691 947.676575 -1142.552734
v -1329.836426 913.525635 -986.521851
v -1319.561768 1120.318604 -1091.961426
v -1345.603760 1075.424438 -951.481201
v -1325.171631 1075.914795 -942.635376
v -1181.482178 1047.115234 -1016.348877
v -1252.522217 1039.717529 -1161.959106
v -1222.672607 1050.762085 -1133.405273
v -1234.097900 1136.006592 -1004.393921
v -1345.951904 910.965027 -1016.160278
v -1170.455078 930.008911 -1132.717896
v -1267.063721 954.101257 -943.286072
v -1215.499268 1034.794800 -970.552002
v -1153.204346 946.903564 -1026.474854
v -1146.730225 1003.084717 -1039.563354
v -1398.144287 1004.406189 -1057.230469
v -1403.920410 940.721985 -1051.156860
vt 0.7040 0.4217
vt 0.5700 0.1518
vt 0.1731 0.4252
vt 0.1172 0.2182
vt 0.2568 0.4023
vt 0.6619 0.0808
vt 0.6170 0.5860
vt 0.8456 0.8101
vt 1.1703 0.5431
vt 0.0930 0.8467
vt 0.0581 1.3921
vt -0.2395 0.8492
vt 0.7226 0.8152
vt 0.0469 0.8466
vt 0.5700 0.5395
vt 0.0712 0.6126
vt -0.2267 0.3216
vt 0.0734 0.3065
vt 0.2026 0.3096
vt 0.3743 0.7365
vt 0.1438 0.4720
vt 0.1455 0.2926
vt -0.2960 0.4217
vt 0.6123 0.4344
vt 1.2267 0.4098
vt 0.8722 -0.1425
vt 0.2267 0.4098
vt 0.2394 -0.2078
vt -0.1278 -0.1425
vt 0.4021 0.5895
vt 0.8506 0.1506
vt 0.8456 -0.1899
vt 0.1111 0.1275
vt -0.0043 0.5025
vt -0.1672 0.3006
vt 0.7605 0.8492
vt 0.6138 1.1275
vt 0.4867 0.9538
vt 0.9957 0.5025
vt 1.1111 0.1275
vt 1.3308 -0.1508
vt 0.4074 0.3006
vt 0.3242 0.0496
vt 0.6138 0.1275
vt 0.0469 -0.1534
vt 0.4021 0.2297
vt 0.3743 -0.5437
vt 0.7784 -0.4618
vt 0.7784 0.6895
vt 0.6253 0.6928
vt 0.8328 0.3006
vt 0.6739 -0.0415
vt 0.9200 0.2378
vt 0.6739 0.9585
vt 0.7784 0.5382
vt 0.9941 1.0581
vt 0.0434 0.4098
vt 0.2381 0.5903
vt 0.2381 0.0918
vt 0.1753 0.6783
vt -0.2953 0.8338
vt 0.7760 0.6228
vt 0.2640 0.1021
vt 0.0901 0.5609
vt 0.7760 0.4274
vt 0.0901 0.5416
vt 0.3409 0.2193
vt 0.7226 -0.1848
vt 0.1731 0.2829
vt 0.0525 0.7402
vt -0.4300 0.5395
vt 0.1455 0.5524
vt 0.8960 0.0496
vt 0.2926 0.5524
vt 0.6778 0.4940
vt 0.0669 0.0930
vt 0.3308 -0.2395
vt 0.1703 0.4466
vt 0.2378 0.4816
vt 0.0581 0.3921
vt 0.3538 0.1506
vt 0.3866 0.2182
vt 0.7561 0.6432
vt 1.4117 0.4988
vt 0.8338 0.4549
vt 0.3216 0.6402
vt 0.4917 0.1174
vt 0.2342 -0.1738
vt 0.0589 -0.1534
vt 0.8722 0.8575
vt 1.2394 0.7922
vt 0.8456 0.4985
vt 1.0669 0.0930
vt 1.1703 0.4466
vt 0.4985 0.8101
vt 0.3538 1.1506
vt 0.4021 1.2297
vt 0.2036 0.3065
vt 0.4563 0.7365
vt 0.8327 0.7046
vt 1.1808 1.3495
vt 1.1438 0.4720
vt 0.2473 0.9538
vt -0.1040 1.0496
vt 0.9941 0.0581
vt 0.9957 -0.4150
vt -0.4150 0.5025
vt -0.2395 -0.1508
vt 1.3495 0.3871
vt 0.3495 0.3871
vt 0.4466 0.5431
vt -0.2774 0.8152
vt 1.0525 -0.2598
vt 0.9200 0.4816
vt 0.3743 0.4563
vt 0.6253 0.4068
vt 0.1111 0.6138
vt -0.1040 0.3242
vt 0.2473 0.4867
vt 0.0589 0.8466
vt 0.2036 1.3065
vt 0.4917 1.1174
vt 1.1455 0.2926
vt 0.2381 1.0918
vt 0.0256 0.6123
vt 0.1753 -0.3217
vt -0.1253 0.4117
vt 0.2640 1.1021
vt 0.8747 0.4117
vt 1.1753 -0.3217
vt 0.7047 -0.1662
vt 0.1836 -0.1258
vt 0.3470 0.0718
vt -0.2267 0.6402
vt 0.2342 0.8262
vt 0.1808 1.3495
vt 0.2898 0.6778
vt 0.4720 0.4036
vt 0.1703 0.5431
vt 0.1808 0.3871
vt -0.2240 0.4274
vt -0.3830 0.5860
vt 0.1836 0.8742
vt 0.2394 0.7922
vt 0.3866 1.2182
vt 0.5368 0.8742
vt 0.8747 0.4988
vt 1.1836 0.8742
vt 1.0901 0.5416
vt 0.4117 0.4988
vt 0.3470 0.5441
vt 0.1172 0.3866
vt 0.6619 0.5343
vt 1.1808 0.3495
vt 0.8327 -0.2954
vt 0.2095 0.7402
vt 0.0434 0.2267
vt 0.0256 -0.3877
vn 0.1382 -0.9193 0.3683
vn 0.0778 -0.4795 0.8741
vn -0.2005 -0.8418 0.5011
vn -0.4745 0.4095 -0.7792
vn -0.2123 0.5605 -0.8004
vn 0.1903 0.2800 -0.9409
vn 0.0528 -0.0210 -0.9984
vn 0.5019 0.3961 -0.7689
vn 0.7374 0.1553 -0.6574
vn 0.7330 0.4354 -0.5227
vn 0.8250 0.4952 -0.2723
vn 0.9757 0.2055 -0.0753
vn 0.2352 0.1216 0.9643
vn -0.4513 -0.0605 0.8903
vn -0.4389 -0.8829 0.1669
vn -0.8119 -0.1201 0.5712
vn -0.6619 0.4589 0.5928
vn -0.1965 0.4655 0.8629
vn -0.2419 0.9147 0.3238
vn 0.4881 -0.7956 0.3589
vn 0.6113 -0.3813 0.6935
vn -0.7941 0.5999 0.0976
vn -0.6279 0.5967 -0.4996
vn -0.9329 0.3383 -0.1238
vn -0.8272 0.2715 -0.4919
vn -0.1116 0.7839 -0.6107
vn 0.6438 0.2999 -0.7040
vn 0.6876 0.3886 0.6133
vn 0.7722 0.5336 0.3449
vn 0.5510 0.2916 0.7819
vn 0.8013 0.4255 0.4206
vn 0.4715 0.4476 0.7597
vn 0.4682 0.8643 0.1837
vn 0.2933 0.7126 0.6373
vn 0.3344 0.9124 -0.2359
vn 0.6442 0.6123 -0.4584
vn -0.4372 0.8458 -0.3056
vn -0.1010 -0.9944 -0.0303
vn -0.7730 -0.6327 -0.0459
vn 0.1727 -0.7370 -0.6534
vn -0.0343 -0.9703 -0.2394
vn -0.3960 -0.4366 -0.8078
vn 0.1417 0.2913 0.9461
vn 0.4548 0.1142 0.8832
vn 0.8870 -0.4455 0.1214
vn -0.9943 0.0933 0.0513
vn -0.6699 -0.4278 -0.6067
vn -0.9239 0.2707 0.2701
vn -0.8565 0.4024 0.3230
vn 0.1399 -0.9901 -0.0063
vn 0.6467 -0.6663 -0.3711
vn -0.4186 0.2349 -0.8772
vn -0.0873 0.3539 -0.9312
usemtl Material
s 1
f 16/1/1 48/2/2 38/3/3
f 32/4/4 6/5/5 43/6/6
f 19/7/7 9/8/8 33/9/9
f 1/10/10 7/11/11 51/12/12
f 35/13/13 17/14/14 48/15/2
f 46/16/15 38/3/3 31/17/16
f 40/18/17 41/19/18 14/20/19
f 24/21/20 22/22/21 16/23/1
f 23/24/22 4/25/23 52/26/24
f 4/27/23 20/28/25 52/29/24
f 6/5/5 21/30/26 43/6/6
f 43/6/6 44/31/27 9/32/8
f 42/33/28 28/34/29 25/35/30
f 51/36/12 42/37/28 27/38/31
f 28/39/29 42/40/28 51/41/12
f 25/42/30 49/43/32 42/44/28
f 41/19/18 40/18/17 17/45/14
f 21/46/26 14/47/19 45/48/33
f 45/49/33 8/50/34 28/39/29
f 28/39/29 8/50/34 25/51/30
f 21/46/26 12/52/35 5/53/36
f 12/54/35 45/55/33 7/56/11
f 6/5/5 4/57/23 39/58/37
f 21/46/26 39/59/37 14/47/19
f 3/60/38 38/3/3 46/16/15
f 3/60/38 46/16/15 53/61/39
f 13/62/40 15/63/41 26/64/42
f 19/7/7 13/65/40 26/66/42
f 2/67/43 17/45/14 35/68/13
f 48/15/2 17/14/14 38/69/3
f 34/70/44 48/71/2 22/72/21
f 25/51/30 2/67/43 49/73/32
f 27/38/31 22/74/21 50/75/45
f 1/76/10 51/77/12 33/78/9
f 5/79/36 7/80/11 44/81/27
f 4/27/23 32/82/4 20/28/25
f 30/83/46 37/84/47 53/85/39
f 31/86/16 30/83/46 53/85/39
f 10/87/48 29/88/49 17/89/14
f 52/90/24 20/91/25 30/83/46
f 9/92/8 1/93/10 33/94/9
f 9/95/8 44/96/27 1/10/10
f 12/54/35 21/97/26 45/55/33
f 23/24/22 40/98/17 14/99/19
f 8/50/34 2/67/43 25/51/30
f 36/100/50 47/101/51 24/102/20
f 27/103/31 49/104/32 34/70/44
f 7/105/11 45/48/33 28/106/29
f 7/80/11 28/107/29 51/108/12
f 51/36/12 50/75/45 47/109/51
f 47/110/51 33/111/9 51/12/12
f 34/70/44 35/112/13 48/71/2
f 49/73/32 35/68/13 34/113/44
f 2/67/43 41/19/18 17/45/14
f 5/114/36 44/31/27 43/6/6 21/30/26
f 3/60/38 16/1/1 38/3/3
f 45/55/33 14/115/19 8/116/34
f 36/100/50 24/102/20 16/1/1
f 2/67/43 8/50/34 14/20/19 41/19/18
f 42/117/28 49/118/32 27/119/31
f 17/120/14 40/121/17 10/122/48
f 16/1/1 22/123/21 48/2/2
f 14/115/19 39/124/37 23/125/22
f 15/63/41 3/126/38 37/127/47 26/64/42
f 5/53/36 12/52/35 7/105/11
f 6/5/5 39/58/37 21/30/26
f 16/1/1 3/60/38 15/128/41 36/100/50
f 37/129/47 3/130/38 53/131/39
f 43/6/6 9/32/8 11/132/52 18/133/53
f 38/69/3 17/14/14 31/134/16
f 17/120/14 29/135/49 31/86/16
f 49/73/32 2/67/43 35/68/13
f 51/36/12 27/38/31 50/75/45
f 24/21/20 47/136/51 50/137/45
f 24/138/20 50/75/45 22/74/21
f 1/10/10 44/96/27 7/11/11
f 33/139/9 47/140/51 13/141/40 19/142/7
f 52/90/24 30/83/46 31/86/16 29/135/49
f 19/7/7 11/143/52 9/8/8
f 20/144/25 32/145/4 11/146/52
f 37/147/47 11/148/52 26/149/42
f 37/150/47 20/144/25 11/146/52
f 26/66/42 11/143/52 19/7/7
f 32/4/4 4/57/23 6/5/5
f 18/151/53 32/152/4 43/153/6
f 30/83/46 20/91/25 37/84/47
f 46/16/15 31/17/16 53/61/39
f 10/87/48 40/98/17 23/24/22
f 10/87/48 23/24/22 52/26/24
f 15/63/41 13/62/40 47/154/51 36/155/50
f 29/135/49 10/122/48 52/90/24
f 32/4/4 18/133/53 11/132/52
f 27/38/31 34/156/44 22/74/21
f 39/59/37 4/157/23 23/158/22
