# Blender v2.78 (sub 0) OBJ File: 'terrain.blend'
# www.blender.org
mtllib rock1.001.mtl
o rock1.001_Cube.023
v -1312.087646 1026.551392 -575.340698
v -1319.560913 1040.401855 -550.543213
v -1267.685913 1049.274170 -513.834473
v -1344.527222 974.636047 -497.320740
v -1278.339600 1046.277588 -581.817688
v -1240.122314 1049.515991 -549.172485
v -1322.945312 971.986023 -484.839203
v -1303.490601 983.580627 -598.779358
v -1279.447754 1025.169556 -587.039429
v -1262.631958 963.733215 -488.564789
v -1322.095703 1043.385376 -513.942993
v -1246.229980 1019.946228 -578.473633
v -1223.879639 971.380432 -517.171387
v -1217.580933 969.715149 -536.729248
v -1261.792358 1001.737915 -491.072723
v -1219.837402 1006.919067 -548.831421
v -1267.813599 1057.733154 -569.660217
v -1317.413574 946.162842 -596.241882
v -1325.205566 993.406982 -492.778137
v -1217.561523 989.255127 -512.532898
v -1345.681885 1023.445618 -514.490234
v -1344.157227 979.141052 -554.355896
v -1217.572998 978.828796 -560.857788
v -1273.528076 938.939270 -578.183167
v -1254.203247 957.129272 -593.920410
v -1322.687012 934.034119 -551.519226
v -1272.735107 1055.687378 -530.074463
v -1279.481934 938.856812 -536.587646
v -1327.125977 1023.725159 -496.346436
v -1308.327515 1002.964783 -583.495422
v -1240.305298 1031.456299 -515.137756
v -1284.640747 996.310730 -606.768494
v -1342.470947 1001.043579 -514.123657
v -1251.132812 967.977295 -596.145020
vt 0.2551 0.4589
vt -0.0406 0.5611
vt -0.0045 0.8672
vt 0.2398 0.4549
vt 0.0369 0.3658
vt 0.1192 0.1735
vt 0.4866 0.0486
vt 0.8071 -0.0915
vt 0.8408 0.1795
vt 0.4827 0.4549
vt 0.3350 0.7136
vt 0.5245 0.6573
vt 0.2629 0.1293
vt 0.4827 -0.0509
vt 0.2553 -0.0151
vt 0.3077 0.4789
vt 0.5544 0.5949
vt 0.7241 0.5001
vt 0.2553 0.4907
vt 0.2198 0.2932
vt 0.1730 0.4599
vt -0.2507 0.4589
vt -0.2099 0.7436
vt 0.3704 0.1302
vt -0.0424 0.1047
vt 0.0187 0.0392
vt -0.1700 -0.2026
vt 0.0174 -0.1937
vt 0.0747 0.1757
vt 0.0553 -0.1331
vt -0.3157 0.1448
vt 0.4491 0.0993
vt 0.4281 0.0250
vt -0.0045 -0.0501
vt 0.2959 0.2378
vt 0.2551 -0.0469
vt -0.0045 0.3614
vt 0.1731 0.2449
vt -0.1296 0.3303
vt -0.1354 0.0702
vt -0.2115 0.2449
vt -0.0459 0.1111
vt 0.6788 0.1735
vt 0.1730 0.1192
vt 0.1730 -0.0459
vt -0.0777 0.3455
vt 0.0908 0.2060
vt 0.0577 0.3387
vt 0.3183 0.5805
vt 0.1902 0.1448
vt 0.3052 0.3256
vt 0.4348 0.1835
vt 0.4693 0.3039
vt 0.3078 0.3077
vt 0.1591 0.2733
vt 0.0577 -0.1671
vt 0.2943 0.2449
vt 0.3260 0.1225
vt 0.4599 0.1111
vt 0.4634 0.1267
vt 0.4480 0.2733
vt 0.3157 0.1448
vt 0.6357 0.3260
vt 0.3350 0.1795
vt 0.3013 -0.0915
vt 0.5245 0.0392
vt 0.4866 0.5544
vt 0.3614 0.4558
vt 0.0747 0.6815
vt 0.3787 0.7118
vt 0.0174 0.0279
vt -0.1700 0.1499
vt -0.1296 -0.1755
vt 0.3704 0.0702
vt 0.3762 0.3303
vt -0.0424 0.1267
vt 0.1299 0.1225
vt 0.2629 0.2627
vt -0.0192 0.0486
vt 0.3013 0.4143
vt -0.0366 0.3039
vt 0.3358 0.3032
vt 0.7799 0.3387
vt 0.0392 0.1515
vt -0.1937 0.0279
vt 0.0369 -0.1400
vt -0.1937 0.5337
vt 0.3358 0.6557
vt -0.0710 0.4808
vt -0.0578 0.2733
vt 0.4348 0.4808
vt 0.3078 0.4789
vt 0.6788 0.4599
vt 0.4693 -0.2019
vt 0.2629 0.6352
vt 0.0319 0.2183
vt 0.4652 0.0553
vt 0.7609 -0.0469
vt 0.4634 -0.4011
vt 0.3157 0.1902
vt 0.4652 0.5611
vt 0.4634 0.1047
vt 0.3614 -0.0501
vt 0.5013 0.3614
vt 0.9339 0.3455
vt 0.8017 0.2378
vt 0.8820 0.3303
vt 0.1731 -0.2609
vt 0.3607 0.0993
vt 0.3455 0.0250
vt 0.0319 0.5001
vt 0.5805 0.1757
vt 0.3298 0.3256
vt 0.2741 0.3387
vt 0.3787 0.2060
vt 0.0392 0.6573
vt 0.4281 0.3455
vt 0.6788 -0.0459
vt -0.2045 -0.0915
vt 0.8416 0.6557
vt 0.4693 0.6154
vn 0.1620 -0.9607 0.2253
vn -0.4270 -0.9042 0.0042
vn -0.4534 -0.5215 -0.7228
vn 0.5899 0.3490 -0.7282
vn 0.9253 0.3313 -0.1842
vn 0.8984 -0.1879 -0.3970
vn -0.6159 0.7216 -0.3160
vn 0.0041 0.9839 0.1786
vn 0.1370 0.8892 -0.4365
vn 0.6790 0.7271 -0.1014
vn -0.0846 0.5800 -0.8102
vn -0.0359 0.3786 -0.9248
vn -0.9494 0.2871 0.1274
vn -0.6609 0.3305 -0.6738
vn -0.0942 0.1827 -0.9786
vn 0.8337 -0.5502 0.0464
vn 0.2162 -0.9393 -0.2663
vn 0.2616 -0.5201 0.8130
vn -0.2609 -0.3283 0.9078
vn 0.1994 0.7578 0.6212
vn 0.6308 0.5286 0.5680
vn -0.9451 0.1036 -0.3099
vn -0.8137 -0.2198 0.5381
vn 0.4829 -0.1115 -0.8686
vn 0.4389 -0.5677 -0.6965
vn 0.8513 0.0519 0.5220
vn 0.2481 0.2420 0.9380
vn -0.4502 0.1211 -0.8846
vn -0.6630 0.3453 -0.6642
vn -0.9836 0.1147 0.1395
vn -0.3677 0.3745 0.8512
vn -0.3849 0.8627 0.3280
vn -0.3692 0.2493 0.8953
vn 0.6466 -0.6276 0.4336
usemtl None
s 1
f 28/1/1 26/2/2 18/3/3
f 12/4/4 16/5/5 23/6/6
f 2/7/7 27/8/8 17/9/9
f 12/10/4 17/11/9 6/12/10
f 5/13/11 12/14/4 9/15/12
f 21/16/13 2/17/7 1/18/14
f 9/19/12 12/10/4 32/20/15
f 14/21/16 28/22/1 24/23/17
f 28/1/1 10/24/18 7/25/19
f 6/26/10 3/27/20 31/28/21
f 22/29/22 26/30/2 4/31/23
f 34/32/24 25/33/25 18/34/3
f 24/35/17 28/36/1 18/37/3
f 20/38/26 15/39/27 10/40/18
f 23/6/6 20/41/26 14/42/16
f 34/32/24 12/10/4 23/43/6
f 23/44/6 14/45/16 25/46/25
f 8/47/28 34/32/24 18/34/3
f 30/48/29 9/19/12 32/20/15
f 22/49/22 4/50/23 33/51/30
f 29/52/31 11/53/32 21/54/13
f 21/16/13 33/51/30 19/55/33
f 5/13/11 9/15/12 30/56/29
f 12/10/4 34/32/24 32/20/15
f 20/57/26 13/58/34 14/59/16
f 7/60/19 19/61/33 4/62/23
f 28/1/1 13/63/34 10/24/18
f 17/64/9 27/65/8 6/66/10
f 21/54/13 11/53/32 2/67/7
f 18/68/3 22/69/22 8/70/28
f 8/47/28 32/20/15 34/32/24
f 31/71/21 3/72/20 15/73/27
f 10/74/18 15/75/27 7/76/19
f 13/77/34 20/38/26 10/40/18
f 5/78/11 2/79/7 17/64/9
f 27/80/8 11/81/32 3/82/20
f 33/51/30 1/18/14 30/83/29
f 33/51/30 21/16/13 1/18/14
f 6/84/10 31/85/21 16/86/5
f 16/5/5 31/87/21 20/41/26
f 15/75/27 3/88/20 29/89/31
f 15/75/27 29/89/31 19/90/33
f 29/91/31 21/92/13 19/61/33
f 28/1/1 14/93/16 13/63/34
f 2/7/7 11/94/32 27/8/8
f 12/10/4 5/95/11 17/11/9
f 1/96/14 2/79/7 5/78/11
f 26/97/2 28/98/1 7/99/19
f 4/100/23 26/101/2 7/102/19
f 22/29/22 18/103/3 26/30/2
f 18/104/3 25/105/25 24/106/17
f 7/60/19 15/107/27 19/61/33
f 31/71/21 15/73/27 20/108/26
f 23/6/6 16/5/5 20/41/26
f 34/109/24 23/6/6 25/110/25
f 1/111/14 5/95/11 30/48/29
f 8/47/28 30/48/29 32/20/15
f 33/51/30 30/83/29 22/112/22
f 4/62/23 19/61/33 33/113/30
f 22/29/22 30/114/29 8/115/28
f 12/4/4 6/116/10 16/5/5
f 25/117/25 14/118/16 24/35/17
f 6/26/10 27/119/8 3/27/20
f 29/91/31 3/120/20 11/121/32
