# Blender v2.78 (sub 0) OBJ File: 'terrain.blend'
# www.blender.org
mtllib rock1.003.mtl
o rock1.003_Cube.051
v -1188.459961 1002.703308 -1092.152832
v -1303.303467 1061.624268 -936.942017
v -1329.492432 904.777771 -1026.556274
v -1350.354736 1091.756592 -1113.292603
v -1211.704102 1103.112061 -1115.053223
v -1316.594238 1090.572144 -1119.525269
v -1199.980469 1088.968994 -1086.624878
v -1258.308838 1136.530884 -983.609619
v -1223.475342 996.905823 -1156.291382
v -1372.658691 1045.508789 -997.041748
v -1328.177490 1007.044067 -1162.350342
v -1250.626709 1120.113037 -1070.877686
v -1234.473877 936.368225 -1175.950684
v -1298.012207 1143.431274 -991.446289
v -1315.457031 928.176636 -1093.583374
v -1245.867920 923.259216 -985.970581
v -1349.802490 1002.686218 -928.594299
v -1302.327881 1038.295288 -1163.499146
v -1259.633301 961.460693 -1190.526001
v -1372.623779 994.076111 -1115.313965
v -1293.615234 1120.192627 -1113.770630
v -1176.037109 956.153259 -965.547363
v -1353.177490 1095.652100 -1016.117798
v -1176.301025 932.617798 -993.926941
v -1225.489014 1074.490479 -983.704773
v -1342.961914 954.445801 -1166.156616
v -1159.926758 1019.632751 -996.257385
v -1199.734863 1106.417725 -1011.799194
v -1361.985352 999.459961 -956.311035
v -1414.092529 970.505798 -1038.859009
v -1393.079102 970.040710 -970.139099
v -1338.684082 1061.448975 -1138.593140
v -1172.112793 954.670105 -1148.075684
v -1190.748291 985.846069 -952.413086
v -1242.920166 997.719666 -943.189758
v -1225.505859 915.958252 -1030.723267
v -1377.033691 947.676575 -1142.552734
v -1329.836426 913.525635 -986.521851
v -1319.561768 1120.318604 -1091.961426
v -1345.603760 1075.424438 -951.481201
v -1325.171631 1075.914795 -942.635376
v -1181.482178 1047.115234 -1016.348877
v -1252.522217 1039.717529 -1161.959106
v -1222.672607 1050.762085 -1133.405273
v -1234.097900 1136.006592 -1004.393921
v -1345.951904 910.965027 -1016.160278
v -1170.455078 930.008911 -1132.717896
v -1267.063721 954.101257 -943.286072
v -1215.499268 1034.794800 -970.552002
v -1153.204346 946.903564 -1026.474854
v -1146.730225 1003.084717 -1039.563354
v -1398.144287 1004.406189 -1057.230469
v -1403.920410 940.721985 -1051.156860
vt 0.7040 0.4217
vt 0.5700 0.1518
vt 0.1731 0.4252
vt 0.1172 0.2182
vt 0.2568 0.4023
vt 0.6619 0.0808
vt 0.6170 0.5860
vt 0.8456 0.8101
vt 1.1703 0.5431
vt 0.0930 0.8467
vt 0.0581 1.3921
vt -0.2395 0.8492
vt 0.7226 0.8152
vt 0.0469 0.8466
vt 0.5700 0.5395
vt 0.0712 0.6126
vt -0.2267 0.3216
vt 0.0734 0.3065
vt 0.2026 0.3096
vt 0.3743 0.7365
vt 0.1438 0.4720
vt 0.1455 0.2926
vt -0.2960 0.4217
vt 0.6123 0.4344
vt 1.2267 0.4098
vt 0.8722 -0.1425
vt 0.2267 0.4098
vt 0.2394 -0.2078
vt -0.1278 -0.1425
vt 0.4021 0.5895
vt 0.8506 0.1506
vt 0.8456 -0.1899
vt 0.1111 0.1275
vt -0.0043 0.5025
vt -0.1672 0.3006
vt 0.7605 0.8492
vt 0.6138 1.1275
vt 0.4867 0.9538
vt 0.9957 0.5025
vt 1.1111 0.1275
vt 1.3308 -0.1508
vt 0.4074 0.3006
vt 0.3242 0.0496
vt 0.6138 0.1275
vt 0.0469 -0.1534
vt 0.4021 0.2297
vt 0.3743 -0.5437
vt 0.7784 -0.4618
vt 0.7784 0.6895
vt 0.6253 0.6928
vt 0.8328 0.3006
vt 0.6739 -0.0415
vt 0.9200 0.2378
vt 0.6739 0.9585
vt 0.7784 0.5382
vt 0.9941 1.0581
vt 0.0434 0.4098
vt 0.2381 0.5903
vt 0.2381 0.0918
vt 0.1753 0.6783
vt -0.2953 0.8338
vt 0.7760 0.6228
vt 0.2640 0.1021
vt 0.0901 0.5609
vt 0.7760 0.4274
vt 0.0901 0.5416
vt 0.3409 0.2193
vt 0.7226 -0.1848
vt 0.1731 0.2829
vt 0.0525 0.7402
vt -0.4300 0.5395
vt 0.1455 0.5524
vt 0.8960 0.0496
vt 0.2926 0.5524
vt 0.6778 0.4940
vt 0.0669 0.0930
vt 0.3308 -0.2395
vt 0.1703 0.4466
vt 0.2378 0.4816
vt 0.0581 0.3921
vt 0.3538 0.1506
vt 0.3866 0.2182
vt 0.7561 0.6432
vt 1.4117 0.4988
vt 0.8338 0.4549
vt 0.3216 0.6402
vt 0.4917 0.1174
vt 0.2342 -0.1738
vt 0.0589 -0.1534
vt 0.8722 0.8575
vt 1.2394 0.7922
vt 0.8456 0.4985
vt 1.0669 0.0930
vt 1.1703 0.4466
vt 0.4985 0.8101
vt 0.3538 1.1506
vt 0.4021 1.2297
vt 0.2036 0.3065
vt 0.4563 0.7365
vt 0.8327 0.7046
vt 1.1808 1.3495
vt 1.1438 0.4720
vt 0.2473 0.9538
vt -0.1040 1.0496
vt 0.9941 0.0581
vt 0.9957 -0.4150
vt -0.4150 0.5025
vt -0.2395 -0.1508
vt 1.3495 0.3871
vt 0.3495 0.3871
vt 0.4466 0.5431
vt -0.2774 0.8152
vt 1.0525 -0.2598
vt 0.9200 0.4816
vt 0.3743 0.4563
vt 0.6253 0.4068
vt 0.1111 0.6138
vt -0.1040 0.3242
vt 0.2473 0.4867
vt 0.0589 0.8466
vt 0.2036 1.3065
vt 0.4917 1.1174
vt 1.1455 0.2926
vt 0.2381 1.0918
vt 0.0256 0.6123
vt 0.1753 -0.3217
vt -0.1253 0.4117
vt 0.2640 1.1021
vt 0.8747 0.4117
vt 1.1753 -0.3217
vt 0.7047 -0.1662
vt 0.1836 -0.1258
vt 0.3470 0.0718
vt -0.2267 0.6402
vt 0.2342 0.8262
vt 0.1808 1.3495
vt 0.2898 0.6778
vt 0.4720 0.4036
vt 0.1703 0.5431
vt 0.1808 0.3871
vt -0.2240 0.4274
vt -0.3830 0.5860
vt 0.1836 0.8742
vt 0.2394 0.7922
vt 0.3866 1.2182
vt 0.5368 0.8742
vt 0.8747 0.4988
vt 1.1836 0.8742
vt 1.0901 0.5416
vt 0.4117 0.4988
vt 0.3470 0.5441
vt 0.1172 0.3866
vt 0.6619 0.5343
vt 1.1808 0.3495
vt 0.8327 -0.2954
vt 0.2095 0.7402
vt 0.0434 0.2267
vt 0.0256 -0.3877
vn 0.0871 -0.7864 0.6115
vn -0.0720 0.5840 -0.8086
vn 0.4295 0.3613 -0.8277
vn 0.7748 0.1429 -0.6158
vn 0.1315 -0.0750 0.9885
vn -0.5638 -0.7382 0.3703
vn -0.3193 0.6362 0.7023
vn 0.1739 -0.7588 0.6277
vn -0.8881 0.4575 -0.0441
vn -0.8809 0.2096 -0.4243
vn -0.2768 0.3857 -0.8801
vn 0.5964 0.3064 -0.7419
vn 0.6449 0.1408 0.7512
vn 0.7857 0.6185 0.0031
vn 0.6753 0.1525 0.7217
vn 0.6916 0.3780 0.6154
vn -0.3854 0.2971 0.8736
vn 0.0767 0.9800 -0.1834
vn 0.5705 0.4994 0.6520
vn 0.5290 0.2786 0.8016
vn 0.1972 0.9606 -0.1959
vn 0.4265 0.8500 -0.3092
vn -0.1121 0.6694 -0.7344
vn -0.1548 0.9696 -0.1898
vn -0.2276 -0.9517 0.2060
vn -0.4054 -0.9086 -0.1011
vn -0.1820 -0.9446 -0.2729
vn -0.1722 -0.6182 -0.7669
vn 0.1367 0.0324 0.9901
vn -0.1887 -0.5644 0.8036
vn 0.2333 -0.2944 0.9268
vn 0.4296 0.3796 0.8193
vn 0.9314 -0.0629 0.3586
vn 0.5530 0.7051 -0.4439
vn 0.9142 -0.0506 -0.4022
vn -0.7841 0.1910 -0.5905
vn -0.9358 -0.1997 -0.2905
vn -0.8740 -0.4077 0.2645
vn -0.9132 0.1300 0.3863
vn -0.8865 0.1879 -0.4229
vn 0.6196 0.6758 -0.3993
vn 0.8538 0.1928 -0.4836
vn 0.2914 0.9115 -0.2903
vn -0.6973 0.6567 0.2872
vn 0.4689 0.2467 0.8481
vn 0.3000 -0.9535 0.0306
vn 0.4720 0.5061 0.7218
vn 0.6192 0.7642 -0.1802
vn 0.8712 0.4775 -0.1142
vn 0.9801 -0.1447 -0.1361
vn 0.9776 -0.0600 -0.2019
vn 0.1541 -0.0875 0.9842
vn 0.2533 0.4462 0.8584
vn -0.1073 0.2219 0.9691
vn 0.2326 0.4773 -0.8474
vn 0.1111 -0.9707 0.2131
vn 0.1424 0.9797 0.1412
vn 0.1553 -0.9613 0.2275
vn 0.0078 0.5541 0.8324
vn 0.4411 0.7288 0.5237
vn -0.8932 0.1810 0.4115
vn 0.1715 -0.7562 0.6315
vn -0.6446 0.7636 -0.0374
vn -0.0344 -0.9426 -0.3321
vn 0.5547 0.8132 0.1758
vn -0.5387 0.5431 -0.6441
vn 0.1018 -0.9886 -0.1110
vn -0.3787 -0.9077 -0.1805
vn 0.0439 -0.0897 -0.9950
vn -0.3075 -0.5659 0.7650
vn -0.7214 0.6490 0.2416
vn 0.4218 0.3154 0.8501
vn 0.9516 -0.0387 0.3048
vn 0.5651 -0.8241 0.0393
vn 0.8075 -0.4577 0.3721
vn 0.8382 0.1456 -0.5255
vn 0.4572 -0.2645 -0.8491
vn -0.7621 0.5859 0.2755
vn 0.1057 0.6330 -0.7669
vn -0.7388 0.1447 -0.6582
vn -0.5847 0.2208 -0.7806
vn -0.7183 0.4017 -0.5680
vn -0.2891 0.1497 -0.9455
vn -0.1236 0.6075 -0.7847
vn 0.0001 0.7325 -0.6808
vn -0.8733 0.3057 -0.3794
vn -0.5848 -0.7346 0.3441
vn -0.8720 0.4287 0.2363
vn -0.9106 0.3972 0.1143
vn -0.0246 -0.9902 -0.1376
vn -0.9368 0.0834 0.3397
vn -0.4015 0.3003 -0.8652
vn 0.7730 0.1064 0.6254
vn -0.6607 0.7491 -0.0492
usemtl textures/dev/ground
s off
f 16/1/1 48/2/1 38/3/1
f 32/4/2 6/5/2 43/6/2
f 19/7/3 9/8/3 33/9/3
f 1/10/4 7/11/4 51/12/4
f 35/13/5 17/14/5 48/15/5
f 46/16/6 38/3/6 31/17/6
f 40/18/7 41/19/7 14/20/7
f 24/21/8 22/22/8 16/23/8
f 23/24/9 4/25/9 52/26/9
f 4/27/10 20/28/10 52/29/10
f 6/5/11 21/30/11 43/6/11
f 43/6/12 44/31/12 9/32/12
f 42/33/13 28/34/13 25/35/13
f 51/36/14 42/37/14 27/38/14
f 28/39/15 42/40/15 51/41/15
f 25/42/16 49/43/16 42/44/16
f 41/19/17 40/18/17 17/45/17
f 21/46/18 14/47/18 45/48/18
f 45/49/19 8/50/19 28/39/19
f 28/39/20 8/50/20 25/51/20
f 21/46/21 12/52/21 5/53/21
f 12/54/22 45/55/22 7/56/22
f 6/5/23 4/57/23 39/58/23
f 21/46/24 39/59/24 14/47/24
f 3/60/25 38/3/25 46/16/25
f 3/60/26 46/16/26 53/61/26
f 13/62/27 15/63/27 26/64/27
f 19/7/28 13/65/28 26/66/28
f 2/67/29 17/45/29 35/68/29
f 48/15/30 17/14/30 38/69/30
f 34/70/31 48/71/31 22/72/31
f 25/51/32 2/67/32 49/73/32
f 27/38/33 22/74/33 50/75/33
f 1/76/34 51/77/34 33/78/34
f 5/79/35 7/80/35 44/81/35
f 4/27/36 32/82/36 20/28/36
f 30/83/37 37/84/37 53/85/37
f 31/86/38 30/83/38 53/85/38
f 10/87/39 29/88/39 17/89/39
f 52/90/40 20/91/40 30/83/40
f 9/92/41 1/93/41 33/94/41
f 9/95/42 44/96/42 1/10/42
f 12/54/43 21/97/43 45/55/43
f 23/24/44 40/98/44 14/99/44
f 8/50/45 2/67/45 25/51/45
f 36/100/46 47/101/46 24/102/46
f 27/103/47 49/104/47 34/70/47
f 7/105/48 45/48/48 28/106/48
f 7/80/49 28/107/49 51/108/49
f 51/36/50 50/75/50 47/109/50
f 47/110/51 33/111/51 51/12/51
f 34/70/52 35/112/52 48/71/52
f 49/73/53 35/68/53 34/113/53
f 2/67/54 41/19/54 17/45/54
f 5/114/55 44/31/55 43/6/55 21/30/55
f 3/60/56 16/1/56 38/3/56
f 45/55/57 14/115/57 8/116/57
f 36/100/58 24/102/58 16/1/58
f 2/67/59 8/50/59 14/20/59 41/19/59
f 42/117/60 49/118/60 27/119/60
f 17/120/61 40/121/61 10/122/61
f 16/1/62 22/123/62 48/2/62
f 14/115/63 39/124/63 23/125/63
f 15/63/64 3/126/64 37/127/64 26/64/64
f 5/53/65 12/52/65 7/105/65
f 6/5/66 39/58/66 21/30/66
f 16/1/67 3/60/67 15/128/67 36/100/67
f 37/129/68 3/130/68 53/131/68
f 43/6/69 9/32/69 11/132/69 18/133/69
f 38/69/70 17/14/70 31/134/70
f 17/120/71 29/135/71 31/86/71
f 49/73/72 2/67/72 35/68/72
f 51/36/73 27/38/73 50/75/73
f 24/21/74 47/136/74 50/137/74
f 24/138/75 50/75/75 22/74/75
f 1/10/76 44/96/76 7/11/76
f 33/139/77 47/140/77 13/141/77 19/142/77
f 52/90/78 30/83/78 31/86/78 29/135/78
f 19/7/79 11/143/79 9/8/79
f 20/144/80 32/145/80 11/146/80
f 37/147/81 11/148/81 26/149/81
f 37/150/82 20/144/82 11/146/82
f 26/66/83 11/143/83 19/7/83
f 32/4/84 4/57/84 6/5/84
f 18/151/85 32/152/85 43/153/85
f 30/83/86 20/91/86 37/84/86
f 46/16/87 31/17/87 53/61/87
f 10/87/88 40/98/88 23/24/88
f 10/87/89 23/24/89 52/26/89
f 15/63/90 13/62/90 47/154/90 36/155/90
f 29/135/91 10/122/91 52/90/91
f 32/4/92 18/133/92 11/132/92
f 27/38/93 34/156/93 22/74/93
f 39/59/94 4/157/94 23/158/94
